<svg height="512" viewBox="0 0 64 64" width="512" xmlns="http://www.w3.org/2000/svg"><g id="avatar-man-boy-male-people"><path d="m41 18-2-3-8 5v-5l-8 3h-3v7c0 .34.01.67.04 1s.07.65.12.97a12.006 12.006 0 0 0 7.84 9.34 11.939 11.939 0 0 0 8 0 12.006 12.006 0 0 0 7.84-9.34c.05-.32.09-.64.12-.97s.04-.66.04-1v-7z" fill="#ffc477"/><path d="m44 18v7c0 .34-.01.67-.04 1s-.07.65-.12.97a12.006 12.006 0 0 1 -7.84 9.34 11.8 11.8 0 0 1 -4 .69 12 12 0 0 1 -2-.17 11.082 11.082 0 0 0 2-.52 12.006 12.006 0 0 0 7.84-9.34c.05-.32.09-.64.12-.97s.04-.66.04-1v-8.5l1 1.5z" fill="#ffa733"/><path d="m55 52.17v8.83h-46v-8.83a8 8 0 0 1 5.96-7.74l13.04-3.43v2a4 4 0 1 0 8 0v-2l13.04 3.43a8 8 0 0 1 5.96 7.74z" fill="#2488ff"/><path d="m55 52.17v8.83h-4v-8.83a8 8 0 0 0 -5.96-7.74l-9.04-2.38v-1.05l13.04 3.43a8 8 0 0 1 5.96 7.74z" fill="#005ece"/><path d="m47 19.36a4 4 0 0 1 -3 6.64h-.04c.03-.33.04-.66.04-1v-7a3.984 3.984 0 0 1 3 1.36z" fill="#ffc477"/><path d="m47 18v1.36a3.984 3.984 0 0 0 -3-1.36h-3l-2-3-8 5v-5l-8 3h-3a3.984 3.984 0 0 0 -3 1.36v-1.36a15 15 0 0 1 30 0z" fill="#ffd422"/><path d="m47 18v1.36a3.984 3.984 0 0 0 -3-1.36h-1a15.016 15.016 0 0 0 -13-14.86 14.6 14.6 0 0 1 2-.14 15.023 15.023 0 0 1 15 15z" fill="#ebbf00"/><path d="m36 41v2a4 4 0 0 1 -8 0v-6.69a11.939 11.939 0 0 0 8 0z" fill="#ffc477"/><path d="m20.04 26h-.04a4 4 0 0 1 -3-6.64 3.984 3.984 0 0 1 3-1.36v7c0 .34.01.67.04 1z" fill="#ffc477"/><path d="m29 23a3 3 0 0 0 -6 0h2a1 1 0 0 1 2 0z"/><path d="m38 22a1 1 0 0 1 1 1h2a3 3 0 0 0 -6 0h2a1 1 0 0 1 1-1z"/><path d="m49.29 43.46-12.29-3.23v-3.23a13.022 13.022 0 0 0 7.84-10.08 4.967 4.967 0 0 0 3.16-7.89v-1.03a16 16 0 0 0 -32 0v1.03a4.939 4.939 0 0 0 -1 2.97 4.982 4.982 0 0 0 4.16 4.92 13.037 13.037 0 0 0 7.84 10.08v3.23l-12.3 3.23a9.03 9.03 0 0 0 -6.7 8.71v8.83a1 1 0 0 0 1 1h46a1 1 0 0 0 1-1v-8.83a9.028 9.028 0 0 0 -6.71-8.71zm-2.29-21.46a3 3 0 0 1 -.87 2.12 2.951 2.951 0 0 1 -1.13.69v-5.63a3.01 3.01 0 0 1 2 2.82zm-28 2.82a3.179 3.179 0 0 1 -1.12-.69 3 3 0 0 1 1.12-4.95zm-.97-7.41a13.973 13.973 0 0 1 23.86-9.3 13.808 13.808 0 0 1 4.08 9.3 4.959 4.959 0 0 0 -1.97-.41h-2.46l-1.71-2.55a1 1 0 0 0 -1.36-.3l-6.47 4.05v-3.2a.983.983 0 0 0 -.43-.82 1 1 0 0 0 -.92-.12l-7.83 2.94h-2.82a5 5 0 0 0 -1.97.41zm2.97 7.59v-6h2a1.03 1.03 0 0 0 .35-.06l6.65-2.5v3.56a1.008 1.008 0 0 0 1.53.85l7.18-4.49 1.46 2.19a1 1 0 0 0 .83.45h2v6a11 11 0 0 1 -22 0zm14 12.64v5.36a3 3 0 0 1 -6 0v-5.36a12.68 12.68 0 0 0 6 0zm19 22.36h-44v-7.83a7.019 7.019 0 0 1 5.21-6.77l11.79-3.1v.7a5 5 0 0 0 10 0v-.7l11.78 3.1a7.017 7.017 0 0 1 5.22 6.77z"/><path d="m37 29h-2c0 .249-1.064 1-3 1s-3-.751-3-1h-2c0 1.71 2.149 3 5 3s5-1.29 5-3z"/></g></svg>