<?xml version="1.0" standalone="no"?>
<!DOCTYPE svg PUBLIC "-//W3C//DTD SVG 20010904//EN"
 "http://www.w3.org/TR/2001/REC-SVG-20010904/DTD/svg10.dtd">
<svg version="1.0" xmlns="http://www.w3.org/2000/svg"
 width="1099.000000pt" height="1280.000000pt" viewBox="0 0 1099.000000 1280.000000"
 preserveAspectRatio="xMidYMid meet">
<metadata>
Created by potrace 1.15, written by Peter Selinger 2001-2017
</metadata>
<g transform="translate(0.000000,1280.000000) scale(0.100000,-0.100000)"
fill="#000000" stroke="none">
<path d="M6393 12533 c-535 -600 -1015 -1151 -2258 -2588 l-838 -970 -81 3
c-45 2 -153 10 -241 18 -88 7 -208 14 -268 14 l-107 0 -11 -27 c-62 -156 -296
-929 -314 -1039 -18 -107 46 64 100 266 36 136 85 284 92 277 2 -2 -15 -73
-38 -158 -79 -298 -154 -515 -173 -500 -6 5 -75 15 -153 21 -172 13 -348 3
-708 -41 -159 -19 -322 -32 -447 -36 l-196 -6 -14 -46 c-22 -77 -14 -218 22
-371 41 -173 47 -256 26 -337 -37 -145 -106 -199 -361 -283 -72 -24 -152 -54
-180 -67 -73 -36 -131 -97 -156 -163 -22 -58 -38 -221 -39 -394 0 -75 -4 -97
-26 -143 -32 -65 -30 -100 15 -247 17 -54 31 -120 31 -146 0 -42 4 -52 34 -78
19 -16 58 -37 88 -46 39 -13 58 -25 71 -47 15 -28 21 -30 64 -27 l47 3 11 -40
c9 -31 20 -44 47 -58 31 -15 37 -25 43 -60 4 -23 13 -54 20 -69 12 -26 11 -32
-22 -79 -50 -73 -53 -108 -14 -148 l31 -32 0 -267 c0 -147 5 -442 12 -655 l11
-389 -49 -95 c-46 -89 -49 -101 -52 -183 -5 -109 15 -185 96 -377 33 -76 67
-161 76 -190 l17 -52 -32 -29 c-30 -27 -34 -36 -37 -99 l-4 -70 53 -23 c67
-29 188 -38 268 -20 101 22 208 97 248 173 l15 30 -68 -39 c-132 -74 -179 -94
-231 -101 -43 -5 -54 -3 -59 11 -10 27 16 112 53 173 30 50 35 67 37 128 1 54
10 93 40 170 l38 100 37 -35 c21 -19 66 -46 102 -59 143 -53 162 -79 164 -226
2 -123 20 -169 63 -161 91 18 139 17 188 -2 l51 -19 107 47 c59 27 139 67 179
91 74 44 177 116 177 124 0 11 -20 3 -61 -25 -53 -36 -63 -37 -55 -6 3 12 3
26 0 29 -4 3 -35 -17 -71 -44 -36 -27 -82 -58 -102 -68 -37 -20 -111 -38 -111
-28 0 3 25 20 55 37 30 17 57 36 61 42 10 17 -35 -1 -101 -39 -33 -19 -74 -37
-92 -40 -28 -5 -33 -2 -39 21 -11 43 7 79 71 147 l60 64 290 0 c160 -1 298 -4
307 -9 12 -5 18 -20 18 -43 0 -19 4 -43 10 -53 12 -23 61 -40 116 -40 34 0 47
5 63 26 12 15 21 32 21 39 0 6 9 20 20 30 19 17 26 17 88 6 130 -23 378 -83
466 -112 100 -33 246 -106 246 -122 0 -6 -8 -19 -17 -29 -22 -25 -21 -106 2
-168 22 -60 30 -160 17 -199 -10 -29 -10 -31 14 -31 13 0 40 -7 59 -14 27 -12
35 -21 35 -40 0 -31 -5 -32 -49 -5 -36 22 -46 19 -46 -14 0 -20 -7 -23 -62
-27 -34 -3 -67 -10 -73 -16 -18 -18 -1 -61 35 -93 59 -52 178 -53 277 -3 45
23 56 34 69 71 l16 44 20 -22 c12 -13 23 -34 26 -48 4 -23 3 -24 -29 -18 -36
6 -44 -4 -19 -25 21 -17 19 -42 -5 -72 -11 -14 -24 -38 -30 -52 -8 -23 -5 -31
26 -66 33 -36 41 -40 83 -40 55 0 74 16 114 96 38 76 44 78 104 40 89 -56 151
-71 298 -71 72 0 141 2 155 5 23 5 25 2 24 -32 -2 -53 -25 -82 -104 -128 l-70
-41 0 -159 c0 -151 1 -160 19 -160 13 0 23 11 31 35 13 39 37 46 63 17 23 -25
21 -35 -4 -21 -26 13 -36 4 -41 -36 -2 -22 -11 -34 -35 -45 -38 -17 -37 -14
-20 -180 8 -74 9 -135 4 -170 -5 -30 -5 -56 -1 -57 62 -21 113 -89 139 -188
13 -47 25 -189 25 -285 0 -5 15 -17 33 -27 23 -12 65 -18 156 -21 l124 -5 -50
-23 c-79 -38 -88 -53 -76 -122 16 -88 -13 -129 -36 -49 -7 23 -23 60 -36 83
-23 39 -85 107 -92 100 -2 -1 4 -19 12 -39 17 -41 19 -107 5 -156 -8 -29 -6
-37 21 -70 16 -21 43 -47 59 -59 l29 -22 120 25 c163 33 223 51 306 91 76 36
137 80 100 71 -11 -3 -36 -12 -56 -20 -20 -9 -41 -12 -48 -7 -10 5 -5 10 17
14 16 4 38 16 47 26 15 17 16 22 5 36 -12 13 -7 22 38 65 55 53 72 92 72 170
l0 45 -65 -60 c-70 -66 -79 -82 -40 -72 47 12 27 -22 -35 -61 -64 -41 -78 -63
-32 -55 40 7 25 -3 -47 -32 -83 -33 -99 -33 -107 2 -3 15 -20 70 -37 122 -23
71 -31 114 -31 170 0 67 4 84 42 166 23 51 42 97 42 103 0 7 9 9 24 5 25 -6
42 7 79 60 20 29 61 42 170 51 l77 7 16 -38 c13 -32 15 -59 9 -152 l-6 -112
36 -16 c20 -8 65 -18 100 -21 56 -5 64 -9 69 -29 9 -36 51 -32 71 6 9 18 23
30 35 30 24 0 24 -4 5 -33 -8 -13 -21 -57 -29 -99 -14 -73 -32 -118 -48 -118
-13 0 -37 44 -58 106 -30 88 -40 104 -68 104 -21 0 -23 -2 -11 -16 8 -10 15
-58 19 -133 7 -151 10 -156 105 -148 144 13 311 76 413 157 48 37 121 124 122
143 0 5 -30 -16 -66 -46 -36 -30 -89 -67 -117 -82 -48 -26 -43 -19 84 106 108
106 143 147 168 198 47 98 37 105 -19 14 -49 -79 -131 -173 -152 -173 -6 0 5
17 23 38 19 20 56 74 83 119 26 46 52 86 57 89 5 3 9 10 9 15 0 19 -80 -54
-176 -160 -53 -58 -119 -125 -146 -148 l-50 -43 -28 30 c-15 17 -33 30 -39 30
-6 0 -18 11 -27 25 -14 22 -15 30 -4 53 8 16 16 86 19 172 8 182 20 210 91
210 25 0 51 4 59 9 28 18 48 264 35 438 -7 78 -8 82 -36 94 -43 18 -93 82
-114 147 -16 49 -19 88 -19 277 0 121 4 246 8 277 l8 57 52 -16 c71 -20 192
-81 219 -110 l22 -24 -34 15 c-19 8 -53 24 -75 35 -41 22 -121 29 -110 11 4
-6 -5 -24 -19 -41 -14 -17 -26 -39 -26 -49 0 -42 102 -104 318 -195 171 -72
261 -137 276 -198 4 -16 1 -83 -5 -150 -9 -97 -9 -128 1 -152 l13 -30 6 25 c4
15 15 26 27 28 27 4 84 -49 84 -77 0 -25 -11 -26 -49 -6 -27 13 -41 11 -41 -6
0 -3 10 -9 21 -12 22 -6 22 -5 4 -72 -4 -13 7 -37 34 -73 41 -54 49 -81 75
-237 11 -66 11 -82 0 -93 -8 -7 -17 -25 -20 -39 -9 -36 3 -122 21 -149 21 -33
78 -32 127 1 38 26 72 32 83 16 3 -5 29 -15 58 -22 66 -14 143 5 223 56 76 49
140 141 73 104 l-23 -12 18 29 c11 16 32 46 48 66 25 32 27 38 12 38 -10 0
-28 -12 -40 -27 -30 -37 -40 -24 -15 18 12 19 21 49 21 67 0 18 7 49 15 69 8
20 13 38 11 40 -2 2 -30 -26 -62 -63 -122 -139 -160 -174 -188 -174 -21 0 -26
4 -22 18 3 9 14 73 26 142 13 82 30 146 49 186 26 55 33 62 64 68 25 5 50 22
84 57 56 59 77 72 102 64 35 -11 51 -65 51 -169 0 -63 5 -109 15 -132 13 -33
13 -37 -5 -57 -16 -17 -20 -35 -20 -92 0 -40 3 -94 7 -120 6 -47 6 -47 40 -42
18 3 51 20 72 36 45 35 71 40 71 12 0 -58 9 -60 152 -31 172 35 282 93 338
179 30 45 68 146 59 156 -7 6 -161 -43 -174 -56 -31 -30 -17 3 35 82 53 80 71
119 55 119 -2 0 -16 -5 -30 -12 -14 -6 -27 -9 -30 -7 -2 3 7 27 20 54 26 49
31 75 17 75 -17 0 -82 -79 -138 -165 -61 -95 -103 -148 -140 -178 l-23 -18 20
46 c15 34 20 65 19 118 -1 40 -1 77 -1 83 1 7 19 34 41 60 25 30 43 64 47 87
5 31 10 37 29 37 14 0 40 15 60 33 l36 32 3 175 c5 230 -3 255 -73 234 -21 -6
-22 -5 -12 21 9 24 6 32 -25 67 -68 75 -81 146 -66 373 6 94 18 346 26 560 17
441 28 611 51 771 15 109 15 114 -6 191 -12 44 -20 98 -18 119 3 34 9 43 52
72 26 17 62 36 80 40 30 8 31 10 34 74 l3 66 77 27 c119 42 179 75 222 121 45
49 60 94 60 181 0 61 1 63 33 76 52 23 70 51 75 117 4 55 7 61 31 66 63 14
119 37 191 79 66 39 79 50 84 78 8 43 -5 91 -42 162 l-32 60 0 196 0 196 43
17 c23 9 48 16 55 16 15 0 16 -487 2 -831 l-10 -236 -42 -47 c-23 -25 -48 -46
-55 -46 -10 0 -13 -30 -13 -135 0 -131 1 -135 24 -150 36 -24 63 -90 76 -186
7 -46 16 -101 21 -122 9 -35 7 -41 -26 -79 -43 -51 -44 -69 -5 -102 67 -56
154 -44 341 48 62 31 118 56 125 56 16 0 35 -55 27 -78 -3 -9 -15 -30 -26 -46
-12 -16 -24 -49 -27 -74 l-7 -44 41 -19 c117 -53 341 9 459 127 16 16 33 36
38 46 11 21 7 20 -186 -27 -71 -18 -132 -31 -134 -29 -2 1 6 14 17 28 11 14
37 72 57 128 44 118 72 168 115 199 29 22 30 25 31 108 0 47 4 109 8 138 7 52
7 53 -37 95 -24 24 -50 55 -58 70 -18 35 -18 140 2 504 15 276 13 453 -5 589
-7 53 -7 57 15 65 13 5 30 23 39 41 16 30 16 32 -8 58 -14 14 -27 35 -29 46
-2 16 3 20 32 23 19 1 81 9 138 17 56 8 124 15 151 15 45 0 48 -1 44 -24 -4
-20 1 -26 30 -35 33 -11 38 -18 61 -89 20 -58 23 -78 14 -81 -7 -2 -28 -19
-45 -37 -41 -40 -42 -73 -6 -121 30 -40 30 -22 13 -292 -5 -91 -10 -314 -11
-496 0 -181 -4 -352 -7 -379 -7 -49 -8 -51 -67 -81 l-60 -32 -3 -164 -2 -164
29 -18 c45 -26 89 -82 101 -129 14 -49 7 -120 -21 -216 -18 -62 -18 -68 -2
-79 62 -46 281 -16 337 46 14 16 13 17 -19 13 -20 -2 -42 1 -49 8 -12 9 -11
16 9 45 12 19 30 69 40 110 10 46 26 86 40 103 l23 27 36 -39 c71 -75 106
-176 106 -305 -1 -48 -7 -104 -15 -126 -13 -37 -13 -41 7 -63 12 -12 46 -30
76 -38 65 -19 137 -9 234 31 67 28 146 56 214 74 42 11 94 51 94 72 0 11 -16
10 -67 -6 -34 -11 -29 11 12 49 38 36 48 71 18 62 -10 -3 -35 -8 -56 -12 -21
-3 -77 -31 -125 -61 -96 -61 -126 -77 -159 -87 -21 -7 -22 -5 -12 22 5 16 23
39 40 51 39 29 51 62 38 100 -19 53 5 108 75 178 l63 61 6 74 c4 40 9 94 13
120 7 51 12 43 -86 132 l-43 39 7 91 c3 50 11 244 16 431 12 407 27 589 61
738 11 47 11 48 -25 87 -42 46 -44 65 -15 115 24 40 46 55 83 55 20 0 26 6 31
33 14 63 29 77 93 78 63 1 151 27 163 50 43 78 82 192 87 251 4 59 2 72 -22
112 -23 40 -25 50 -17 88 5 24 12 72 16 108 4 36 16 87 26 114 10 28 18 51 16
52 -1 1 -13 7 -26 14 l-24 12 7 172 c3 94 15 284 26 421 28 345 37 705 19 726
-33 39 -506 125 -899 163 -302 30 -658 48 -1380 71 -468 15 -943 36 -937 41 2
2 77 22 168 45 628 158 1395 501 2067 927 215 136 365 253 505 396 139 141
175 198 231 368 37 111 32 186 -20 292 -85 173 -344 317 -705 390 -168 35
-283 46 -474 46 -334 1 -812 56 -1155 135 -522 120 -799 297 -827 532 l-5 48
72 80 c40 44 80 92 89 107 9 14 45 47 79 73 34 26 149 137 254 247 106 110
272 269 368 353 96 85 194 176 217 203 49 57 137 182 132 186 -4 3 -758 95
-1249 152 -216 25 -856 94 -877 94 -1 0 -109 -120 -240 -267z m912 157 c230
-24 311 -34 750 -95 270 -37 539 -73 580 -76 5 0 -6 -7 -25 -14 -53 -20 -147
-18 -309 10 -196 33 -446 66 -861 115 -190 23 -426 52 -525 65 l-180 25 185
-5 c102 -3 275 -14 385 -25z m-641 -69 c7 -10 -75 -126 -183 -260 -85 -107
-190 -225 -436 -491 -222 -241 -334 -369 -656 -750 -147 -173 -452 -522 -679
-775 -380 -422 -492 -552 -819 -949 -123 -150 -320 -366 -371 -410 -35 -29
-53 -30 -58 -3 -3 17 32 59 237 286 63 69 418 479 790 911 1321 1535 2126
2450 2156 2450 8 0 16 -4 19 -9z m893 -108 c33 -27 73 -84 73 -106 0 -13 -15
1 -44 40 -24 33 -59 72 -77 87 -33 27 -34 27 -4 12 17 -8 40 -23 52 -33z m103
-202 c0 -9 3 -26 6 -38 4 -13 2 -23 -4 -23 -8 0 -33 83 -32 108 1 14 30 -32
30 -47z m-50 -612 c0 -17 -5 -51 -11 -76 -9 -35 -14 -42 -21 -29 -6 10 -3 34
6 66 8 28 12 58 9 67 -4 11 -3 14 5 9 7 -4 12 -21 12 -37z m-44 -285 c-3 -8
-10 -14 -16 -14 -8 0 -8 6 0 20 6 11 8 37 4 59 -4 22 -3 48 2 58 10 20 19 -99
10 -123z m-1196 -63 c0 -5 -7 -15 -16 -22 -9 -7 -20 -22 -23 -33 -7 -18 -9
-16 -23 12 -16 30 -15 31 11 41 34 12 51 13 51 2z m96 -408 c15 -21 18 -43 5
-43 -5 0 -14 14 -20 30 -11 34 -5 39 15 13z m62 -168 c-7 -8 -38 23 -38 38 0
6 10 2 22 -10 12 -13 19 -25 16 -28z m88 -239 c45 -141 51 -188 13 -102 -29
67 -90 285 -73 261 8 -11 35 -82 60 -159z m113 -305 c36 -132 22 -121 -28 23
-27 78 -29 87 -12 72 10 -10 29 -52 40 -95z m91 -263 c0 -16 -3 -19 -11 -11
-6 6 -8 16 -5 22 11 17 16 13 16 -11z m188 -498 c88 -228 183 -473 212 -545
28 -71 90 -240 136 -375 102 -297 134 -378 192 -495 46 -93 128 -221 156 -244
12 -11 16 -32 16 -100 l0 -88 46 -59 c26 -32 58 -77 72 -99 34 -54 72 -161 72
-207 l0 -38 -94 0 -94 0 -15 33 c-22 49 -35 93 -57 202 -28 144 -48 199 -87
244 l-34 41 17 54 c14 45 15 58 4 70 -7 9 -19 16 -26 16 -19 0 -27 22 -64 165
-70 269 -140 479 -383 1145 -104 285 -237 676 -237 696 0 18 17 -23 168 -416z
m-2998 -457 c7 -23 10 -53 8 -67 -5 -24 -2 -26 28 -26 42 0 51 14 22 34 -17
12 -19 19 -11 27 19 19 44 2 61 -42 15 -38 17 -40 46 -33 52 12 80 8 121 -19
36 -23 55 -26 205 -36 91 -7 316 -28 500 -47 228 -24 359 -34 412 -30 86 6
109 -5 89 -43 -29 -53 -171 -52 -486 4 -326 58 -552 78 -610 56 -17 -7 -14 -9
15 -14 19 -4 100 -14 180 -22 80 -8 170 -21 200 -27 l55 -13 -62 -3 c-33 -2
-175 8 -315 22 -139 14 -299 28 -355 32 -57 3 -100 11 -97 16 3 5 22 16 42 26
44 21 58 56 19 47 -21 -6 -26 -3 -29 16 -2 18 -18 -2 -66 -89 -35 -61 -68
-112 -74 -112 -5 0 -18 10 -27 21 l-17 22 -22 -28 c-31 -39 -55 -128 -56 -207
-1 -38 -4 -68 -7 -68 -31 0 -126 136 -115 165 3 8 23 17 44 21 32 5 39 10 35
24 -3 12 3 24 16 32 26 16 27 30 1 53 -39 36 -26 50 44 49 38 0 71 -6 80 -13
14 -12 16 -10 16 18 0 28 -3 31 -29 31 -44 0 -61 10 -61 36 0 31 39 56 82 52
30 -3 34 -7 43 -46 l11 -44 12 27 c15 32 15 41 1 105 l-11 51 -26 -26 c-35
-35 -60 -48 -164 -79 -48 -14 -89 -30 -92 -35 -3 -5 -33 0 -67 10 -63 20 -201
27 -183 10 5 -6 29 -11 54 -14 25 -2 -20 -4 -100 -5 -127 -1 -247 7 -463 34
-36 4 -55 10 -49 16 6 6 70 3 168 -6 167 -17 371 -21 284 -6 -25 5 -133 15
-240 24 -107 9 -244 21 -305 27 -119 12 -114 14 -151 -47 -10 -15 -15 -17 -25
-7 -10 10 -9 20 9 52 12 21 22 46 22 55 0 9 5 16 10 16 6 0 149 -13 318 -29
169 -16 396 -32 505 -35 109 -4 223 -11 253 -17 30 -6 65 -7 77 -3 12 4 49 32
82 64 72 67 118 101 126 92 3 -4 11 -26 19 -49z m-1240 -294 c12 -22 13 -109
1 -128 -10 -15 -15 -8 -25 32 -6 25 -11 28 -31 23 -31 -8 -33 10 -5 64 21 42
41 45 60 9z m2759 -106 c-15 -71 -34 -156 -43 -190 -15 -58 -56 -249 -56 -261
0 -4 7 4 16 16 17 25 34 21 34 -9 0 -10 7 -19 14 -19 15 0 115 79 150 119 22
24 46 28 46 7 0 -16 -71 -82 -106 -98 -29 -14 -31 -43 -3 -58 13 -7 19 -19 17
-33 -7 -49 -140 -47 -165 3 l-12 24 -11 -29 c-6 -17 -41 -142 -76 -280 -82
-316 -112 -417 -124 -410 -13 8 -13 71 1 118 16 59 4 67 -22 14 -23 -47 -23
-49 -8 -105 9 -31 24 -78 35 -104 21 -54 17 -64 -20 -47 -55 25 -74 98 -52
194 8 33 70 283 139 555 69 272 128 524 132 560 7 71 17 90 47 90 21 0 21 2 3
-85 -6 -28 -5 -29 8 -12 8 10 20 45 26 79 11 62 24 88 46 88 8 0 4 -36 -16
-127z m-307 77 c43 -7 75 -16 72 -21 -8 -14 -93 -11 -181 6 -43 8 -96 15 -118
15 -31 0 -37 3 -25 11 17 12 137 6 252 -11z m-2315 -20 c32 -6 168 -17 303
-25 135 -8 272 -19 305 -25 54 -10 85 -29 85 -52 0 -10 -122 -10 -177 1 -25 5
-43 5 -43 -1 0 -16 48 -27 142 -33 51 -4 103 -8 115 -11 26 -5 53 -77 53 -142
0 -40 2 -43 16 -31 15 12 16 9 10 -41 -4 -30 -23 -105 -42 -166 -43 -140 -56
-209 -49 -259 6 -35 4 -41 -17 -50 -32 -14 -61 -96 -56 -156 4 -37 1 -48 -14
-58 -10 -6 -18 -22 -18 -36 0 -17 -4 -23 -14 -19 -7 3 -31 -4 -52 -15 -21 -12
-46 -21 -56 -21 -25 0 -31 17 -9 23 14 3 21 17 26 51 4 25 11 49 16 52 17 10
9 24 -16 24 -20 0 -26 -7 -36 -40 -7 -22 -18 -40 -25 -40 -36 0 -460 65 -594
91 -166 33 -197 43 -167 54 21 9 23 35 2 35 -9 0 -33 -12 -54 -26 -37 -24 -94
-35 -108 -20 -4 4 16 75 44 159 53 155 75 253 66 297 -3 19 1 27 19 35 24 11
45 66 88 232 12 45 28 90 37 100 13 16 14 13 8 -34 -3 -29 -19 -97 -36 -150
-22 -71 -30 -119 -31 -174 0 -75 -1 -76 -25 -71 l-25 5 17 -33 c21 -42 17
-119 -11 -175 -31 -64 -46 -46 -29 35 10 48 -10 28 -24 -24 -10 -36 -8 -40 20
-67 58 -54 171 -84 424 -114 176 -20 313 -43 337 -56 14 -8 32 -3 76 21 l57
31 18 -22 c17 -21 17 -21 17 12 0 48 24 144 75 299 52 162 75 268 75 350 l0
61 -45 19 c-65 28 -136 38 -375 55 -118 8 -232 19 -252 25 -29 8 -45 7 -74 -5
-20 -8 -47 -15 -59 -15 -32 0 -39 27 -12 45 40 26 124 28 270 6 159 -24 191
-26 181 -10 -15 25 -82 40 -219 49 -147 10 -198 22 -225 55 -14 16 -13 17 7
11 11 -4 47 -11 80 -16z m1086 -53 c9 -1 17 -7 17 -15 0 -7 12 -33 26 -58 14
-24 24 -51 21 -58 -5 -12 14 -15 111 -15 74 0 197 -11 335 -31 224 -31 429
-40 495 -21 34 10 44 -3 20 -27 -19 -19 -1 -27 27 -12 24 13 60 58 53 65 -2 2
-61 9 -132 15 -199 16 -191 30 15 27 164 -2 178 -1 199 18 l22 20 34 -37 c38
-42 49 -98 15 -77 -34 22 -51 5 -51 -50 0 -139 -51 -391 -141 -705 -42 -146
-57 -183 -85 -210 -15 -16 -15 -18 2 -37 18 -20 18 -21 -5 -40 -13 -10 -33
-19 -45 -19 -40 0 -66 -12 -66 -30 0 -10 9 -22 20 -25 11 -3 20 -13 20 -20 0
-8 -6 -13 -12 -11 -7 3 -25 7 -39 10 -26 6 -26 6 -17 62 5 31 15 72 23 92 21
48 9 54 -24 13 l-28 -34 -79 7 c-148 13 -423 59 -631 105 -51 12 -113 21 -137
21 -81 0 -129 35 -101 73 12 17 17 16 88 -8 42 -14 127 -36 189 -49 152 -33
572 -100 628 -100 41 -1 46 2 74 43 16 24 42 49 56 54 23 9 30 20 40 66 7 31
36 123 65 206 58 164 81 264 88 368 5 64 3 71 -24 101 -27 31 -34 33 -114 40
-47 3 -165 20 -263 37 -270 47 -300 50 -402 50 -184 1 -271 -54 -311 -195 -13
-46 -18 -54 -18 -31 -1 37 18 108 53 199 14 37 26 70 26 72 0 2 -11 4 -25 4
-21 0 -25 -5 -25 -27 0 -47 -11 -74 -29 -71 -18 4 -30 55 -30 135 -1 28 -6 64
-11 78 -14 37 -4 48 34 40 17 -4 39 -8 49 -8z m315 -67 c6 0 12 -5 12 -11 0
-15 -63 -6 -68 10 -4 10 1 12 19 8 13 -4 30 -7 37 -7z m-1561 -54 c-22 -43
-37 -50 -37 -18 0 24 28 62 45 62 11 0 9 -10 -8 -44z m1153 -129 c0 -12 -6
-42 -14 -66 -19 -64 -31 -33 -15 39 12 57 29 72 29 27z m-164 -137 c-6 -32
-13 -47 -20 -40 -6 6 -5 24 4 50 18 56 29 50 16 -10z m3587 44 c10 -10 -12
-46 -50 -82 -23 -22 -33 -39 -31 -55 2 -17 -4 -25 -32 -34 -45 -16 -50 -16
-50 1 0 8 -9 18 -20 21 -33 11 -22 30 25 44 45 13 61 31 28 31 -12 0 -5 10 21
33 53 43 92 58 109 41z m-3463 -71 c-1 -16 -7 -39 -15 -53 -11 -21 -15 -22
-20 -8 -4 9 0 30 9 46 8 16 12 32 9 36 -4 3 -1 6 5 6 7 0 12 -12 12 -27z
m3510 -75 c0 -9 -9 -23 -20 -31 -25 -17 -16 -27 24 -27 l31 -1 -24 -19 c-16
-14 -38 -20 -73 -20 -65 0 -188 21 -188 31 0 5 40 9 88 9 55 0 92 4 100 12 7
7 12 37 12 68 l1 55 24 -30 c14 -16 25 -38 25 -47z m-3420 -32 c0 -11 -20 -95
-45 -185 -25 -91 -45 -184 -45 -207 0 -44 -14 -64 -32 -46 -14 14 1 106 46
282 20 74 38 147 41 162 6 33 35 28 35 -6z m-114 -62 c4 -22 -6 -74 -31 -164
-41 -145 -41 -183 -4 -233 25 -35 14 -56 -21 -37 -29 16 -35 7 -20 -30 10 -24
18 -30 44 -30 17 0 68 -9 113 -19 45 -10 85 -16 88 -13 3 3 5 0 5 -6 0 -21
-90 -14 -198 15 -100 28 -103 29 -112 63 -19 66 -11 139 25 251 19 60 35 115
35 124 0 8 5 15 10 15 6 0 10 -11 10 -25 0 -38 18 -30 29 13 14 48 14 52 -4
52 -17 0 -18 12 -8 60 6 30 7 32 19 15 8 -10 16 -33 20 -51z m3164 17 l65 -7
-75 -7 c-41 -4 -313 -20 -605 -37 -291 -17 -628 -38 -748 -46 -120 -8 -223
-14 -230 -11 -6 2 1 12 17 22 52 35 139 45 386 45 147 0 323 7 470 20 129 11
255 21 280 23 81 6 374 5 440 -2z m-3340 -111 c-6 -22 -15 -38 -21 -34 -10 6
-6 24 14 74 14 37 20 8 7 -40z m3205 -62 c24 -22 38 -45 42 -70 5 -36 4 -38
-20 -38 -35 0 -41 14 -21 51 15 31 15 33 -2 46 -10 7 -34 13 -53 13 -34 1 -35
2 -17 15 27 21 31 19 71 -17z m475 15 c0 -10 -4 -25 -10 -33 -8 -12 -10 -12
-16 3 -7 20 1 47 16 47 5 0 10 -8 10 -17z m3553 -37 c32 -25 17 -69 -33 -96
-107 -57 -1012 -135 -1920 -165 -544 -18 -676 -32 -861 -89 -113 -35 -117 -38
-96 -70 27 -40 57 -55 168 -82 57 -14 117 -30 132 -36 33 -13 67 -53 67 -80 0
-26 -32 -16 -85 27 -54 43 -72 51 -130 59 -96 14 -166 38 -201 71 -19 18 -34
39 -34 48 0 23 82 83 148 108 96 36 196 48 467 59 335 12 945 50 1370 85 99 8
302 21 450 29 369 20 489 47 513 116 12 33 19 36 45 16z m-4168 -67 c-21 -22
-50 -28 -172 -31 -109 -4 -101 5 27 27 52 9 109 24 125 34 25 14 31 15 33 3 2
-7 -4 -22 -13 -33z m2133 25 c97 -9 179 -18 181 -20 2 -2 -250 -3 -560 -2
-310 2 -587 1 -616 -2 -51 -5 -87 9 -69 27 25 25 777 23 1064 -3z m-6653 -24
c-4 -7 -45 -10 -113 -9 -59 1 -149 -4 -201 -10 -92 -11 -200 -6 -184 10 7 6
491 28 502 22 1 -1 0 -7 -4 -13z m1404 -54 c-8 -28 -17 -42 -22 -37 -6 6 -4
28 4 55 8 28 17 42 22 37 6 -6 4 -28 -4 -55z m-1362 -62 c-5 -72 -3 -111 4
-120 17 -20 1 -34 -39 -34 l-37 -1 35 -15 c19 -8 107 -29 195 -45 88 -17 210
-42 270 -55 61 -14 122 -27 137 -31 15 -3 25 -9 22 -14 -7 -12 -41 -12 -46 0
-1 5 -59 19 -128 30 -69 11 -180 32 -248 45 -172 36 -299 55 -403 63 -98 7
-117 24 -35 33 57 6 61 24 6 28 -58 4 -49 22 10 22 48 0 51 1 56 30 4 16 13
35 22 42 13 11 14 10 6 -12 -4 -14 -7 -36 -7 -50 1 -28 45 -70 73 -70 20 0 40
27 40 55 0 13 -5 12 -29 -6 -60 -44 -85 13 -31 71 33 36 51 35 61 -1 6 -23 7
-23 22 12 9 20 21 57 28 82 6 26 14 47 17 47 3 0 2 -48 -1 -106z m-917 88 c0
-21 -58 -32 -158 -31 -124 1 -114 16 13 19 64 2 123 10 143 19 1 0 2 -3 2 -7z
m5064 -4 c-3 -4 -51 -8 -107 -8 -71 0 -97 3 -87 10 18 12 201 10 194 -2z m444
-79 c-2 -76 -6 -93 -22 -105 -11 -8 -23 -14 -28 -14 -4 0 -8 47 -8 105 l0 105
31 0 31 0 -4 -91z m-1669 27 c-6 -25 -16 -46 -21 -46 -10 0 -6 28 12 76 16 42
22 22 9 -30z m-4266 30 c25 -19 21 -28 -10 -24 -17 2 -29 10 -31 21 -4 20 16
22 41 3z m4867 4 c-8 -5 -85 -10 -170 -10 -85 0 -172 -4 -193 -9 -37 -9 -54
-1 -42 19 4 6 86 10 213 10 137 0 202 -4 192 -10z m1645 -6 c19 -8 19 -8 -5
-15 -14 -4 -113 -7 -221 -8 -187 -1 -198 -2 -245 -26 -49 -25 -72 -21 -61 9
10 24 52 37 157 46 109 10 345 6 375 -6z m-6601 -49 c14 -29 20 -60 20 -117 0
-88 -13 -114 -42 -85 -14 14 -18 40 -20 133 -3 94 -1 115 10 112 7 -2 22 -22
32 -43z m5883 19 l28 -25 -39 6 c-59 10 -210 7 -240 -5 -35 -13 -186 -13 -186
0 0 6 29 10 68 10 37 0 103 9 147 19 44 11 106 20 137 20 48 1 61 -3 85 -25z
m1099 -28 c-4 -22 -13 -36 -21 -36 -18 0 -20 42 -4 72 16 31 33 7 25 -36z
m-5136 -1 c85 -14 263 -45 395 -69 205 -38 230 -44 175 -45 -39 -1 -140 14
-255 38 -104 21 -236 42 -292 45 -111 7 -193 27 -214 52 -11 13 -9 15 12 10
13 -3 94 -17 179 -31z m3090 4 c0 -7 -16 -8 -45 -4 -27 5 -90 0 -159 -10 -119
-18 -175 -15 -196 10 -11 13 13 15 194 15 139 0 206 -3 206 -11z m460 3 c0
-22 -29 -32 -97 -32 -40 0 -141 -12 -225 -26 -163 -27 -462 -45 -443 -26 17
18 191 41 459 62 143 11 262 22 264 25 8 8 42 6 42 -3z m1360 -66 c-1 -21 -1
-21 -16 -1 -9 11 -20 28 -25 38 -10 18 -9 18 15 2 15 -10 26 -27 26 -39z
m-3903 18 c8 -22 -15 -43 -27 -24 -5 8 -10 21 -10 28 0 17 30 15 37 -4z
m-2117 -4 c0 -3 -6 -12 -12 -18 -19 -19 4 -29 88 -37 81 -7 96 -17 62 -39 -24
-15 -255 -28 -251 -13 13 40 14 60 4 66 -17 11 -3 39 22 43 38 6 87 5 87 -2z
m-659 -44 c11 -14 32 -26 47 -28 27 -4 27 -4 -10 -21 -20 -9 -41 -24 -46 -33
-23 -40 -42 23 -26 84 8 28 12 28 35 -2z m6059 9 c14 -8 36 -14 50 -15 17 0
21 -3 13 -11 -11 -11 -106 -15 -123 -4 -6 3 -10 15 -10 26 0 23 33 25 70 4z
m428 -7 c-3 -7 -14 -18 -26 -24 -35 -17 -6 -34 63 -35 76 -1 109 -10 113 -32
3 -16 -57 -17 -960 -16 -558 0 -951 4 -934 9 68 21 367 30 952 30 678 0 745 5
703 47 -19 19 0 33 47 33 32 0 44 -4 42 -12z m-168 -18 c0 -6 -27 -10 -60 -10
-33 0 -60 4 -60 10 0 6 27 10 60 10 33 0 60 -4 60 -10z m3675 0 c6 -9 -44 -40
-65 -40 -21 0 -9 17 23 32 17 8 33 16 34 17 1 0 4 -3 8 -9z m-6680 -105 c50
-8 105 -15 123 -15 20 0 31 -4 27 -10 -12 -19 -146 -5 -270 30 l-30 8 30 1
c17 0 71 -6 120 -14z m-3136 -31 c285 -53 690 -137 1291 -268 190 -41 467
-100 615 -132 l270 -57 62 17 c109 29 161 14 118 -34 -22 -24 -30 -22 160 -55
226 -40 588 -114 992 -204 200 -45 365 -81 368 -81 3 0 5 -21 5 -46 0 -25 5
-87 11 -138 6 -50 9 -105 7 -121 -3 -26 -6 -22 -21 30 -26 89 -43 123 -67 130
-25 8 -17 25 13 26 16 0 11 5 -20 19 -79 35 -257 80 -497 126 -133 25 -259 49
-281 54 -49 11 -58 6 -13 -9 32 -10 264 -62 381 -85 32 -6 55 -15 51 -19 -16
-16 29 -25 -1049 207 -115 25 -480 104 -810 176 -330 72 -622 135 -649 141
-27 5 -52 12 -55 15 -13 14 160 -7 259 -31 170 -42 273 -64 264 -56 -21 18
-279 81 -619 150 -82 17 -185 39 -227 50 -43 10 -75 15 -73 10 8 -12 93 -38
185 -54 93 -17 154 -34 147 -41 -8 -8 -441 77 -475 94 -23 11 -31 20 -27 32 5
14 -4 18 -57 23 -35 3 -90 15 -122 27 -33 11 -64 20 -70 20 -20 -1 27 -30 48
-30 17 0 18 -2 6 -10 -24 -16 -81 -11 -124 10 -45 21 -169 140 -147 140 8 0
75 -12 150 -26z m9761 6 c23 -23 26 -50 6 -50 -17 0 -31 18 -39 48 -6 27 7 28
33 2z m-6438 -59 c150 -27 298 -53 328 -59 l55 -9 -45 -1 c-106 -3 -315 31
-670 109 l-85 19 72 -5 c40 -3 196 -27 345 -54z m886 7 c7 -16 7 -30 2 -33
-14 -8 -43 42 -36 62 8 19 17 11 34 -29z m365 20 c18 -12 64 -51 102 -86 l70
-65 100 6 c55 4 168 16 250 26 442 59 629 43 760 -67 l30 -25 205 6 c113 4
255 9 315 12 108 5 109 5 65 -10 -58 -19 -185 -32 -440 -46 -204 -11 -205 -11
-220 11 -53 76 -69 88 -138 101 -116 24 -282 16 -527 -25 -272 -45 -377 -54
-502 -44 -116 9 -150 28 -51 28 102 0 104 2 51 72 -25 33 -62 75 -81 94 -40
39 -35 44 11 12z m4911 6 c10 -10 16 -33 16 -64 0 -47 0 -48 -35 -52 -39 -4
-42 -1 -20 28 19 25 19 44 -1 44 -11 0 -14 5 -10 16 3 9 6 22 6 30 0 19 25 18
44 -2z m-5930 -19 c77 -14 145 -26 150 -26 6 -1 -6 -5 -28 -9 -38 -7 -88 0
-251 39 -120 29 -40 26 129 -4z m2511 4 c-8 -13 -56 -32 -63 -25 -3 3 1 12 8
21 14 17 65 21 55 4z m3290 1 c-3 -5 -15 -10 -26 -10 -10 0 -19 5 -19 10 0 6
12 10 26 10 14 0 23 -4 19 -10z m-8860 -23 c10 -8 14 -17 9 -20 -12 -7 -84 15
-84 25 0 13 55 9 75 -5z m7475 -31 c34 -11 35 -13 41 -71 3 -33 2 -65 -3 -71
-4 -6 -5 -14 -2 -17 3 -3 3 -10 -1 -16 -4 -8 -16 -6 -35 4 -16 8 -35 14 -42
13 -8 -2 -15 18 -21 55 -8 48 -7 61 7 76 9 10 16 21 16 24 0 11 -48 8 -55 -3
-9 -15 -25 -12 -25 4 0 28 39 28 120 2z m-6120 4 c12 -8 12 -10 -3 -16 -9 -3
-25 -3 -34 0 -15 6 -15 8 -3 16 8 6 17 10 20 10 3 0 12 -4 20 -10z m4709 -17
c16 -31 40 -123 32 -123 -11 0 -39 62 -46 104 -8 39 -1 47 14 19z m2800 -34
c6 -18 11 -33 11 -35 0 -2 -16 8 -36 21 -20 14 -41 25 -45 25 -5 0 -9 5 -9 10
0 6 15 10 34 10 29 0 36 -4 45 -31z m-7069 -24 c80 -20 172 -40 205 -45 53 -8
49 -9 -40 -5 -81 2 -423 59 -540 89 -11 3 36 3 105 1 100 -3 154 -11 270 -40z
m1956 -9 c-7 -43 -6 -43 25 -50 17 -3 55 -6 85 -6 29 0 55 -4 58 -9 6 -8 -95
-41 -127 -41 -9 0 -25 9 -35 20 -17 18 -20 19 -32 5 -10 -12 -10 -27 0 -76 8
-35 9 -64 4 -69 -20 -19 -97 -32 -224 -37 -108 -4 -165 -1 -285 16 -82 12
-163 26 -180 30 l-30 9 35 15 c20 9 93 19 170 25 74 5 143 13 153 17 15 6 16
4 7 -20 -16 -42 -12 -50 14 -22 14 15 40 28 62 32 22 3 70 13 108 22 66 14 70
14 83 -3 7 -10 13 -28 13 -42 0 -13 4 -20 10 -17 19 12 10 47 -20 77 -17 17
-28 33 -25 36 3 3 24 5 47 3 34 -2 39 1 34 14 -25 65 -12 115 30 115 25 0 26
-1 20 -44z m82 29 c9 -8 -13 -35 -29 -35 -14 0 -19 7 -19 26 0 22 3 24 23 18
12 -3 23 -8 25 -9z m4602 3 c-26 -11 -339 -25 -329 -14 3 3 54 8 114 11 59 3
110 7 113 10 3 3 33 5 66 4 53 0 58 -2 36 -11z m-1506 -32 c14 3 29 10 32 15
3 5 9 9 15 9 17 0 9 -31 -18 -67 -25 -33 -26 -36 -10 -48 24 -17 21 -30 -9
-44 -38 -17 -24 -36 25 -33 32 2 41 -1 41 -13 0 -13 -11 -15 -57 -13 -55 3
-58 4 -67 36 -6 21 -5 49 1 79 7 28 7 58 2 77 -7 27 -7 29 5 13 10 -13 21 -16
40 -11z m1071 4 c-29 -12 -134 -12 -115 0 8 5 42 9 75 9 43 0 54 -3 40 -9z
m-276 -9 c11 -7 10 -10 -5 -14 -89 -24 -114 -28 -130 -25 -17 3 -16 5 6 18 14
8 43 17 65 21 22 3 42 7 45 8 3 0 11 -3 19 -8z m-932 -72 c-80 -47 -245 -75
-512 -89 -110 -5 -326 -21 -480 -35 -305 -27 -768 -63 -1589 -125 -291 -22
-533 -43 -537 -47 -14 -14 -31 -226 -24 -308 3 -44 18 -163 32 -265 30 -217
33 -362 8 -435 -54 -162 -179 -326 -337 -445 -111 -84 -163 -108 -293 -135
-62 -13 -126 -30 -143 -39 -74 -38 -123 -139 -142 -296 -13 -109 -13 -330 0
-330 17 0 1033 119 1245 146 883 111 1660 223 2355 340 178 30 327 54 330 54
17 -2 -131 -56 -220 -80 -120 -34 -198 -48 -505 -90 -220 -31 -394 -58 -1225
-190 -982 -156 -2039 -304 -2055 -288 -7 7 -8 387 -1 478 3 41 3 67 0 58 -6
-20 -29 -24 -39 -7 -4 6 32 52 80 102 48 51 98 104 112 120 34 38 83 61 251
118 166 57 212 81 294 157 156 145 248 350 248 553 0 110 -13 175 -55 264 -32
70 -32 71 -24 175 4 58 8 168 8 246 l1 141 63 7 c216 22 796 72 1307 110 1369
105 1531 117 1665 130 185 18 205 18 182 5z m-2027 -9 c63 -5 148 -10 188 -11
39 -1 72 -6 72 -10 0 -4 -15 -18 -32 -31 -30 -21 -43 -23 -133 -21 -55 1 -192
-7 -305 -18 -227 -21 -310 -24 -310 -10 0 6 15 21 33 35 86 66 240 86 487 66z
m-2335 -29 c137 -20 423 -87 439 -102 6 -6 6 -13 -1 -20 -9 -9 -30 -3 -85 23
-57 28 -89 37 -148 41 -65 4 -154 22 -335 65 -67 16 -7 13 130 -7z m1818 -8
c-21 -58 -73 -93 -137 -93 -43 0 -45 10 -8 50 43 48 160 82 145 43z m3347 12
c0 -11 -93 -105 -103 -105 -5 0 -6 10 -3 23 4 12 8 29 10 37 2 9 17 16 39 18
24 2 37 8 37 18 0 8 5 14 10 14 6 0 10 -2 10 -5z m-8240 -57 c0 -6 -5 -26 -11
-43 -10 -26 -17 -31 -46 -31 -31 0 -34 3 -31 26 4 33 88 79 88 48z m230 -18
c85 -31 138 -37 171 -20 15 8 19 7 19 -3 0 -20 19 -33 60 -42 l35 -7 -19 21
c-15 17 -16 21 -4 21 8 0 23 -9 33 -20 28 -30 109 -56 344 -110 119 -27 344
-78 501 -115 157 -36 654 -149 1106 -250 451 -101 982 -222 1180 -269 197 -46
362 -82 366 -80 5 3 8 17 8 31 0 22 2 24 16 12 14 -11 15 -26 10 -80 -6 -63
-24 -133 -25 -98 -2 42 -77 75 -226 100 -61 10 -67 13 -47 22 17 8 45 4 117
-16 52 -15 105 -27 117 -27 41 0 -33 39 -98 52 -128 24 -1617 362 -2138 484
-248 59 -283 65 -316 55 -46 -14 -88 -15 -75 -2 6 5 21 11 35 13 l25 4 -25 11
c-14 5 -45 13 -70 17 -39 5 -43 4 -27 -8 29 -22 19 -29 -34 -23 -62 8 -69 13
-43 31 10 8 17 16 14 19 -3 3 -97 25 -210 51 -480 108 -920 213 -927 220 -8 7
23 36 38 36 4 0 44 -13 89 -30z m4440 -20 c0 -12 -40 -33 -48 -25 -4 4 2 13
12 21 23 16 36 18 36 4z m2924 -528 l-6 -264 33 -34 c37 -38 32 -56 -9 -32
l-27 17 -1 358 c-1 254 1 338 8 288 5 -38 6 -189 2 -333z m-194 181 c-7 -56
-17 -100 -21 -97 -13 7 -11 96 3 188 11 75 13 78 21 45 6 -22 5 -70 -3 -136z
m-7250 81 c0 -47 -4 -73 -10 -69 -5 3 -10 37 -10 76 0 39 4 69 10 69 6 0 10
-32 10 -76z m-270 24 c-18 -34 -61 -78 -93 -95 -27 -14 -28 -13 -25 8 3 20
117 122 126 114 2 -2 -2 -14 -8 -27z m7210 -46 l0 -67 -40 -1 c-46 -2 -59 20
-40 67 7 16 10 38 7 49 -4 17 0 20 34 20 l39 0 0 -68z m-261 43 c-14 -13 -705
-80 -1234 -120 -449 -33 -539 -45 -295 -39 229 6 363 15 845 59 383 34 706 57
713 50 2 -2 -10 -11 -27 -19 -36 -19 -126 -31 -351 -46 -229 -15 -626 -52
-1075 -100 -209 -22 -427 -45 -485 -51 -103 -11 -248 -8 -282 6 -14 6 -18 2
-18 -15 0 -12 5 -30 11 -41 9 -18 17 -19 65 -13 52 6 54 6 54 -18 0 -55 -70
-95 -125 -70 -23 11 -24 9 -32 -46 -11 -77 -8 -1042 3 -1117 11 -76 30 -78 64
-10 16 32 32 51 46 53 19 3 20 -2 20 -91 -1 -90 -2 -93 -22 -89 -26 5 -40 -14
-24 -33 24 -29 -72 -32 -134 -4 -22 10 -22 11 -9 112 27 207 34 524 21 962 -6
231 -12 438 -12 460 l-1 40 135 12 c166 16 988 82 1520 123 217 17 433 35 480
39 106 10 155 12 149 6z m126 -99 c31 -53 51 -71 79 -71 12 0 21 -6 21 -15 0
-19 -85 -26 -115 -10 -17 9 -20 21 -20 75 0 36 2 65 5 65 2 0 16 -20 30 -44z
m185 -96 c0 -22 -4 -40 -10 -40 -5 0 -10 18 -10 40 0 22 5 40 10 40 6 0 10
-18 10 -40z m-7695 -8 c-6 -5 -39 -30 -74 -57 -45 -34 -69 -61 -85 -95 -25
-54 -44 -54 -66 0 -10 25 -10 34 4 54 23 35 74 72 126 90 48 16 110 22 95 8z
m7947 -157 c-4 -126 -22 -117 -22 11 1 88 3 105 12 89 7 -12 11 -53 10 -100z
m-3254 55 c6 0 15 8 21 18 18 31 33 0 26 -52 l-7 -46 -52 0 c-29 0 -57 5 -64
12 -15 15 -15 58 -2 94 l11 27 27 -26 c16 -15 33 -27 40 -27z m-3948 -86 c25
-20 55 -40 68 -45 13 -5 21 -13 17 -19 -14 -22 -135 -40 -135 -20 0 6 9 10 21
10 11 0 17 5 14 10 -12 19 -92 10 -250 -31 -88 -22 -192 -43 -231 -46 -75 -6
-148 2 -140 16 10 15 121 41 266 60 169 23 239 42 277 76 16 13 33 24 38 25 6
0 30 -16 55 -36z m9401 -11 c19 -22 30 -59 22 -79 -4 -12 -9 -11 -25 6 -11 12
-26 19 -34 16 -11 -4 -14 6 -14 45 0 44 2 49 18 40 9 -5 24 -17 33 -28z m-158
-14 c-7 -7 -20 -8 -30 -5 -17 7 -17 8 1 22 23 17 48 2 29 -17z m-128 -19 c-3
-5 -24 -10 -46 -10 -21 0 -39 5 -39 10 0 6 21 10 46 10 27 0 43 -4 39 -10z
m-232 -20 c-13 -5 -46 -12 -75 -15 -49 -6 -52 -5 -34 9 13 11 39 16 75 15 44
0 51 -2 34 -9z m-298 -19 c-39 -16 -249 -32 -280 -22 -27 8 -25 9 25 11 30 1
78 5 105 10 69 10 176 11 150 1z m525 -1 c-8 -5 -40 -12 -70 -15 -30 -3 -73
-8 -95 -11 -57 -7 -33 12 30 24 69 13 155 15 135 2z m-9225 -25 c-16 -8 -37
-14 -45 -15 -25 0 -78 -37 -85 -59 -3 -11 -11 -18 -18 -16 -7 1 -33 9 -59 15
-27 7 -48 16 -48 21 0 15 199 66 260 67 24 0 24 0 -5 -13z m283 5 c-18 -11
-151 -41 -156 -35 -12 12 89 41 153 44 18 0 18 -1 3 -9z m8627 -9 c22 -5 26
-8 14 -13 -22 -9 -100 2 -93 13 6 10 34 10 79 0z m-175 -22 c0 -19 -406 -38
-436 -21 -15 9 8 11 101 12 66 0 127 5 135 10 16 11 200 9 200 -1z m-9270 -20
c39 -10 42 -13 25 -21 -25 -11 -96 10 -103 31 -3 9 2 11 14 8 11 -3 39 -11 64
-18z m805 -20 c-55 -17 -138 -38 -185 -49 -83 -18 -84 -18 -62 0 34 28 98 49
197 64 142 22 158 17 50 -15z m8735 21 c-25 -14 -223 -38 -365 -44 l-130 -5
80 14 c44 8 154 20 245 28 91 8 170 15 175 15 6 1 3 -3 -5 -8z m-9195 -75 c68
-34 154 -66 225 -85 63 -17 147 -46 185 -64 39 -19 133 -53 210 -76 217 -66
621 -205 820 -282 237 -93 292 -111 410 -137 148 -33 238 -64 466 -162 223
-96 303 -124 479 -170 176 -47 355 -107 384 -130 19 -15 26 -30 26 -55 0 -43
-11 -43 -41 0 -21 31 -35 38 -149 72 -167 50 -466 148 -860 284 -434 149 -652
221 -657 217 -13 -13 772 -290 1295 -457 90 -28 162 -54 160 -56 -6 -5 -193
34 -273 58 -38 11 -166 56 -283 99 -117 44 -327 117 -465 163 -326 109 -645
225 -666 243 -15 12 13 10 52 -3 69 -23 80 -10 17 19 -47 22 -160 51 -160 41
0 -2 12 -10 28 -18 22 -12 24 -16 10 -21 -22 -9 -61 13 -55 30 4 9 -12 15 -59
20 -35 3 -64 11 -64 16 0 6 8 8 18 5 140 -42 34 15 -132 71 -146 48 -139 47
-131 32 18 -29 -308 64 -610 173 -148 54 -414 164 -429 178 -10 10 25 42 57
52 38 11 78 -1 192 -57z m165 55 c0 -13 -37 -50 -50 -50 -11 0 -12 6 -4 38 4
15 14 22 30 22 13 0 24 -4 24 -10z m525 1 c-12 -10 -90 -33 -196 -56 -59 -13
-83 -23 -105 -46 -20 -21 -37 -29 -61 -29 -18 0 -33 4 -33 10 0 21 147 79 250
99 93 18 135 26 150 30 2 0 0 -3 -5 -8z m6813 -408 c-2 -172 -6 -313 -9 -313
-4 0 -12 7 -20 16 -10 12 -10 27 -1 73 8 35 12 169 13 352 1 209 4 278 10 239
5 -30 8 -196 7 -367z m760 381 c2 -25 -3 -37 -24 -53 -15 -11 -36 -21 -48 -21
-19 0 -21 6 -22 55 l0 56 45 -3 c43 -3 46 -5 49 -34z m177 26 c-3 -5 -33 -10
-66 -10 -38 0 -58 4 -54 10 3 6 33 10 66 10 38 0 58 -4 54 -10z m-7700 -49 c3
-5 1 -13 -5 -16 -15 -9 -43 3 -35 15 8 13 32 13 40 1z m6945 -31 c25 -25 27
-63 4 -58 -22 4 -58 53 -50 67 10 16 23 14 46 -9z m-7074 -6 c-44 -16 -102
-49 -131 -75 -17 -15 -22 -16 -39 -4 -15 12 -17 17 -7 29 25 30 123 63 191 64
20 1 17 -2 -14 -14z m347 1 c-12 -9 -75 -29 -140 -45 -123 -32 -153 -46 -178
-84 -11 -17 -22 -22 -40 -18 -30 5 -47 25 -40 43 7 18 60 52 105 68 34 13 242
48 290 50 l24 1 -21 -15z m123 -44 c-6 -9 -96 -35 -159 -46 -57 -9 -38 11 26
29 46 13 73 19 125 25 7 0 11 -3 8 -8z m-1315 -77 c101 -36 348 -122 549 -190
727 -250 949 -327 1190 -414 628 -227 744 -268 1015 -364 160 -57 370 -130
467 -162 98 -32 178 -62 178 -65 0 -6 -86 4 -135 16 -16 5 -93 33 -170 63 -77
30 -427 151 -778 269 -351 117 -720 244 -820 282 -100 38 -267 97 -372 131
-104 35 -303 105 -442 156 -138 51 -330 120 -425 152 -95 33 -217 78 -270 101
-54 23 -121 49 -150 57 -37 12 -47 18 -37 25 8 5 14 9 15 9 0 0 83 -30 185
-66z m1477 44 c-7 -19 -44 -35 -136 -59 -97 -25 -143 -53 -157 -96 l-10 -31
-35 19 c-19 10 -48 18 -64 19 l-29 0 24 26 c35 39 89 59 234 89 71 15 136 30
145 35 21 13 32 12 28 -2z m-430 -49 c-21 -17 -38 -40 -38 -51 0 -16 -4 -19
-22 -13 -13 3 -33 9 -45 12 -13 3 -23 9 -23 12 0 27 81 69 135 70 l30 0 -37
-30z m551 1 c-20 -12 -127 -40 -149 -40 -44 1 86 48 135 49 24 0 27 -2 14 -9z
m-242 -86 c-31 -24 -47 -44 -47 -59 0 -32 -9 -36 -42 -19 -16 8 -33 12 -38 9
-18 -11 -10 22 12 50 27 34 71 54 122 55 l39 0 -46 -36z m522 19 c-20 -24 -63
-39 -163 -58 -49 -9 -102 -23 -117 -31 -32 -16 -59 -51 -59 -74 0 -13 13 -10
68 17 63 31 419 130 429 119 12 -11 -81 -45 -166 -60 -51 -9 -107 -24 -122
-32 -29 -15 -59 -60 -59 -89 0 -13 6 -11 33 9 17 13 57 34 87 46 57 23 330 83
338 75 7 -7 -72 -38 -158 -64 -99 -30 -154 -62 -174 -104 l-16 -34 -67 18
c-38 10 -143 44 -236 76 -153 52 -167 58 -161 77 10 33 26 48 78 72 59 27 98
20 40 -8 -37 -18 -54 -34 -54 -52 0 -12 27 -5 160 42 123 44 231 70 294 71 35
1 37 -1 25 -16z m2701 -88 c-30 -99 -123 -225 -192 -261 -27 -14 -29 -13 -40
11 -6 14 -17 25 -24 25 -10 0 -9 7 4 28 32 53 185 262 189 259 9 -9 -31 -94
-77 -163 -27 -43 -48 -79 -45 -82 2 -3 23 8 45 23 51 36 103 117 126 202 17
59 19 62 22 32 2 -19 -2 -52 -8 -74z m2835 -335 c-5 -13 -8 -12 -17 4 -7 13
-8 66 -4 160 12 241 21 259 24 46 1 -107 0 -201 -3 -210z m-7653 373 c21 -19
24 -43 5 -43 -19 0 -37 21 -37 42 0 22 8 23 32 1z m-110 -24 c9 -5 169 -60
355 -123 560 -189 677 -231 1938 -701 282 -105 685 -252 725 -265 14 -5 117
-40 230 -80 113 -39 309 -105 435 -146 127 -42 244 -81 262 -86 29 -11 32 -15
42 -85 17 -114 14 -148 -13 -180 -13 -15 -28 -25 -32 -20 -4 4 -3 44 3 90 9
62 9 88 0 107 -20 42 -207 118 -767 310 -157 54 -402 140 -545 190 -143 51
-465 161 -715 245 -250 84 -732 256 -1070 383 -338 126 -669 249 -735 272
-148 51 -225 79 -245 87 -23 10 39 22 80 15 19 -2 43 -9 52 -13z m4638 -81
c-30 -59 -106 -128 -189 -172 -103 -54 -106 -44 -5 25 99 67 155 118 186 167
28 46 34 33 8 -20z m-2030 17 c-7 -8 -27 -15 -45 -15 -48 0 -228 -57 -243 -77
-17 -24 -26 -59 -18 -78 8 -22 44 -2 56 31 10 25 36 42 47 30 3 -3 -1 -14 -10
-24 -16 -17 -24 -62 -12 -62 3 0 27 11 53 24 65 32 220 81 322 101 47 9 93 18
103 20 9 2 17 0 17 -4 0 -15 -79 -50 -159 -71 -107 -27 -157 -52 -176 -90 -20
-38 -19 -40 9 -40 15 0 36 14 56 36 22 26 42 38 65 40 18 1 61 14 95 28 69 28
80 31 80 17 0 -5 -35 -21 -79 -36 -79 -26 -114 -52 -124 -92 -3 -13 -3 -23 -1
-23 2 0 38 18 81 39 89 45 200 84 300 105 135 29 65 -10 -82 -45 -110 -26
-149 -51 -164 -106 -16 -57 24 -55 58 3 11 19 28 34 36 34 14 0 14 -5 -4 -34
-12 -18 -21 -43 -21 -55 0 -31 44 -28 67 5 28 40 52 64 64 64 6 0 -3 -16 -21
-36 -38 -44 -36 -69 5 -69 25 0 33 7 48 38 13 28 23 37 43 37 14 0 87 20 163
45 157 51 234 69 228 51 -7 -23 -69 -54 -149 -76 -120 -32 -164 -53 -182 -89
-37 -70 5 -104 45 -36 12 19 25 35 30 35 13 0 11 -8 -8 -41 -9 -15 -14 -31
-11 -34 3 -4 37 9 74 28 107 54 357 137 371 123 9 -9 -72 -44 -153 -66 -105
-28 -139 -49 -154 -95 -10 -31 -10 -39 1 -46 22 -14 26 -11 59 36 39 57 70 63
40 8 -26 -49 -26 -73 0 -73 13 0 28 13 41 35 12 20 29 35 40 35 20 0 26 -24 9
-35 -5 -3 -10 -17 -10 -31 l0 -24 68 33 c93 47 181 81 285 110 127 36 106 14
-27 -28 -63 -19 -126 -45 -141 -57 -26 -20 -61 -85 -52 -94 2 -3 35 12 73 33
122 65 160 82 205 89 l44 7 -19 -21 c-10 -12 -49 -33 -86 -47 -76 -29 -103
-53 -98 -87 5 -33 30 -33 53 2 19 28 43 45 51 37 6 -6 -27 -96 -37 -103 -19
-12 -395 91 -654 180 -71 24 -292 102 -490 174 -198 71 -385 137 -415 147 -67
22 -64 19 -51 43 23 44 154 100 306 131 117 25 121 25 105 6z m-21 -59 c-8 -8
-123 -46 -138 -46 -23 0 3 22 42 37 30 11 105 18 96 9z m6083 -62 c36 -66 49
-183 36 -319 -5 -55 -12 -260 -16 -455 -7 -326 -9 -358 -27 -387 -36 -61 -70
-51 -110 30 -43 89 -51 197 -31 453 9 121 16 302 16 404 1 171 13 284 34 319
4 7 22 11 39 9 27 -3 36 -11 59 -54z m1269 -81 c41 -44 49 -58 49 -91 0 -26
-9 -52 -26 -78 -26 -38 -26 -39 -14 -121 11 -68 10 -157 -4 -535 -9 -249 -20
-499 -23 -556 l-6 -103 -26 6 c-46 12 -93 56 -119 114 -24 50 -27 71 -30 196
-3 95 3 209 17 355 26 264 40 572 30 674 -4 42 -15 99 -25 128 -19 58 -24 50
56 101 l35 23 19 -30 c10 -17 40 -54 67 -83z m-2122 20 c0 -25 -1 -26 -9 -8
-12 27 -12 35 0 35 6 0 10 -12 9 -27z m-2596 -90 c10 -92 -4 -382 -17 -352 -5
14 -8 79 -6 154 2 72 4 160 4 197 1 80 11 80 19 1z m-914 23 c-20 -17 -151
-77 -157 -72 -4 4 2 13 13 19 34 20 140 65 144 61 2 -2 2 -6 0 -8z m3370 -39
c-8 -24 -17 -33 -29 -30 -23 6 -44 -23 -44 -63 0 -19 -4 -34 -9 -34 -6 0 -7
25 -3 61 3 34 6 70 6 80 0 14 7 19 29 19 17 0 33 5 37 11 4 7 10 7 16 1 7 -7
6 -22 -3 -45z m141 -118 c0 -26 -8 -47 -25 -66 -29 -34 -33 -16 -9 43 9 22 13
50 10 68 -5 29 -5 30 9 12 8 -11 15 -37 15 -57z m-7610 35 c0 -3 -5 -14 -11
-25 -9 -17 -7 -21 11 -26 16 -4 18 -8 8 -14 -7 -5 -23 -9 -35 -9 -18 0 -23 6
-23 24 0 14 7 32 16 40 15 16 34 21 34 10z m7540 -3 c0 -4 -9 -20 -20 -34 -11
-14 -20 -37 -20 -51 0 -24 -2 -25 -22 -14 -13 7 -24 14 -26 14 -1 1 2 14 8 30
9 23 8 31 -4 40 -9 6 -13 14 -9 17 10 10 93 8 93 -2z m-6974 -102 c151 -53
213 -113 205 -196 0 -7 -17 -27 -36 -44 -43 -40 -46 -78 -9 -126 l25 -34 -11
-617 c-6 -339 -13 -649 -17 -687 l-5 -71 -117 -17 c-64 -9 -132 -18 -151 -19
l-35 -3 -12 70 c-22 131 -31 420 -26 862 l6 442 23 22 c33 31 30 60 -10 112
-59 77 -63 89 -35 106 82 54 113 106 111 188 0 24 1 43 3 43 2 0 43 -14 91
-31z m6374 21 c-20 -13 -63 -13 -55 0 3 6 21 10 38 10 24 0 28 -3 17 -10z
m-2910 -19 c0 -4 -29 -35 -65 -68 -58 -54 -65 -58 -65 -36 0 32 27 72 65 94
31 20 65 25 65 10z m3304 -2 c-12 -19 -72 -39 -119 -39 -26 0 -201 -22 -390
-50 -409 -59 -815 -113 -1015 -135 -168 -19 -188 -23 -105 -24 126 -2 427 32
850 94 279 41 510 68 526 63 16 -5 -348 -68 -682 -117 -326 -49 -1155 -153
-1178 -149 -10 2 -2 10 23 22 39 18 107 30 241 42 59 6 66 8 47 17 -16 7 -51
6 -120 -2 -123 -17 -158 -13 -154 14 2 11 5 31 6 44 4 36 33 50 127 61 115 12
350 20 319 10 -14 -4 -41 -9 -60 -10 -19 -1 -44 -5 -55 -10 -13 -6 -3 -7 30
-4 28 2 111 9 185 14 157 13 354 38 675 85 377 55 617 82 758 84 69 1 96 -2
91 -10z m526 -59 c0 -27 -4 -50 -10 -50 -5 0 -10 23 -10 50 0 28 5 50 10 50 6
0 10 -22 10 -50z m-1310 31 c0 -10 -34 -17 -150 -30 -47 -5 -109 -13 -137 -17
-31 -4 -53 -3 -53 3 0 5 66 17 148 27 157 19 186 23 190 25 1 0 2 -3 2 -8z
m2037 -78 c-2 -16 -4 -3 -4 27 0 30 2 43 4 28 2 -16 2 -40 0 -55z m-4807 7 c0
-34 23 -41 39 -12 9 15 10 14 11 -7 0 -14 -16 -41 -40 -67 -28 -31 -40 -52
-40 -74 0 -35 -10 -38 -34 -11 -21 23 -16 56 22 143 27 64 42 74 42 28z m1358
-1 c2 -23 2 -23 -13 -5 -18 24 -20 39 -2 34 6 -3 13 -15 15 -29z m757 -29 c-3
-5 -33 -10 -66 -10 -38 0 -58 4 -54 10 3 6 33 10 66 10 38 0 58 -4 54 -10z
m-4744 -99 c46 -16 174 -65 284 -109 110 -44 225 -88 256 -97 l57 -18 4 -111
c2 -61 2 -320 0 -576 l-4 -465 -38 -16 c-53 -23 -84 -89 -88 -191 -5 -89 18
-151 65 -180 l27 -16 -47 -7 c-55 -8 -173 -11 -347 -7 l-125 2 0 68 c-1 86
-17 131 -71 198 l-44 54 0 192 c0 106 -5 333 -12 505 -13 339 -2 584 28 630
21 33 17 51 -16 90 -28 31 -41 83 -22 83 5 0 46 -13 93 -29z m8179 -186 c0
-126 -4 -185 -10 -175 -5 8 -10 99 -10 205 0 126 4 185 10 175 5 -8 10 -99 10
-205z m-9086 189 c48 -19 -31 -76 -81 -58 -35 12 -53 41 -33 54 17 11 90 13
114 4z m-69 -84 c37 0 56 -17 34 -31 -36 -23 -119 2 -119 36 0 11 6 12 26 5
14 -6 40 -10 59 -10z m7675 -7 c-1 -18 -19 -33 -65 -53 -94 -40 -188 -61 -300
-66 -137 -6 -118 6 78 47 77 16 164 40 195 53 59 25 92 31 92 19z m-2699 -33
c46 -25 4 -43 -65 -27 -25 6 -46 14 -46 18 0 18 82 24 111 9z m-4969 -25 c15
-3 33 -15 39 -27 11 -20 10 -21 -42 -14 -58 8 -99 28 -99 50 0 11 8 12 38 6
20 -5 49 -11 64 -15z m9633 -168 c-4 -61 -10 -120 -15 -131 -12 -33 -24 45
-16 112 18 161 18 165 29 147 6 -11 7 -60 2 -128z m-335 77 c0 -14 -4 -22 -10
-19 -5 3 -10 17 -10 31 0 14 4 22 10 19 6 -3 10 -17 10 -31z m-2170 16 c0 -5
-20 -10 -45 -10 -25 0 -45 5 -45 10 0 6 20 10 45 10 25 0 45 -4 45 -10z
m-3756 -135 c9 -14 15 -25 13 -25 -2 0 -14 11 -27 25 -13 14 -19 25 -13 25 6
0 18 -11 27 -25z m-1393 -26 c95 -31 212 -80 229 -96 21 -19 19 -285 -3 -453
-17 -125 -22 -284 -11 -314 3 -9 13 -16 22 -16 37 0 -3 -11 -104 -30 -61 -11
-130 -26 -154 -35 -24 -8 -46 -13 -49 -10 -8 9 -4 975 4 975 1 0 31 -9 66 -21z
m7730 -87 c-3 -51 -5 -54 -12 -27 -7 24 -6 101 1 125 7 19 14 -51 11 -98z
m-2491 17 c-76 -31 -430 -88 -800 -129 -292 -33 -420 -53 -1200 -189 -157 -27
-359 -57 -450 -66 -240 -25 -332 -41 -350 -62 -13 -15 -33 -18 -130 -19 -89
-2 -153 -10 -286 -38 -94 -19 -198 -38 -230 -41 -33 -4 -80 -11 -107 -17 -40
-8 -52 -7 -73 7 -45 29 -12 46 108 56 404 34 1022 120 1913 268 577 96 996
160 1450 220 170 22 190 24 155 10z m-3820 -44 c0 -30 -3 -35 -22 -35 -68 1
-87 28 -30 42 18 5 32 13 32 18 0 6 5 10 10 10 6 0 10 -16 10 -35z m4540 -17
c-1 -28 -2 -30 -11 -15 -6 10 -8 25 -5 33 9 24 16 16 16 -18z m539 -78 c24 -6
48 -21 57 -36 9 -13 15 -26 13 -28 -13 -9 -92 -26 -123 -26 -40 0 -42 5 -21
56 8 20 12 41 8 47 -4 6 0 8 10 4 9 -3 34 -11 56 -17z m1141 -110 c0 -86 2
-101 18 -109 32 -17 42 6 43 99 0 57 3 78 9 65 13 -29 12 -150 -1 -179 -16
-35 -3 -91 31 -130 35 -39 38 -61 11 -76 -25 -13 -92 -13 -126 0 -25 9 -25 10
-9 35 9 14 32 32 51 40 42 18 39 36 -8 51 l-34 12 -3 152 c-2 102 1 149 8 145
6 -3 10 -48 10 -105z m-6960 70 l60 -30 2 -88 c4 -137 -1 -200 -17 -232 -15
-29 -15 -30 10 -30 l25 0 0 -300 c0 -235 -3 -300 -13 -300 -7 0 -29 9 -50 20
-20 11 -44 20 -52 20 -18 0 -18 -1 0 43 17 42 19 125 5 179 -13 45 -55 98 -78
98 -10 0 -55 -14 -102 -30 -94 -33 -127 -37 -155 -17 -28 21 -3 30 95 35 103
4 138 16 147 50 3 14 3 154 -1 312 -4 157 -4 289 0 293 16 15 67 6 124 -23z
m6600 -112 c0 -90 -3 -128 -10 -118 -13 20 -13 250 0 250 6 0 10 -51 10 -132z
m-1035 82 c0 -11 -14 -16 -57 -18 -53 -3 -58 -1 -58 18 0 19 5 21 58 18 43 -2
57 -7 57 -18z m-7519 -381 c1 -186 4 -343 8 -347 4 -4 14 2 23 13 12 17 13 47
8 189 -6 132 -5 167 5 161 31 -19 40 -72 34 -203 -5 -84 -3 -140 4 -161 10
-27 8 -32 -9 -42 -13 -6 -44 -8 -83 -4 l-63 7 15 42 c12 31 17 118 23 371 4
182 8 332 8 335 1 2 7 -2 14 -9 9 -9 12 -94 13 -352z m2404 246 c9 -11 10 -47
5 -143 -10 -175 -4 -188 101 -231 44 -17 94 -40 112 -51 l32 -20 0 -316 c0
-295 -1 -315 -17 -311 -10 3 -31 8 -48 12 -16 3 -82 31 -146 61 -65 30 -123
54 -130 54 -20 0 -4 906 17 937 17 26 55 30 74 8z m3630 -104 c-6 -23 -8 -46
-5 -51 3 -6 -2 -10 -12 -10 -10 0 -24 9 -31 21 -9 14 -20 19 -33 16 -31 -8
-22 8 16 26 22 10 37 26 41 43 6 22 8 24 21 11 12 -12 12 -22 3 -56z m1575 9
c10 -11 24 -20 31 -20 15 0 7 -38 -14 -62 -13 -16 -11 -19 21 -38 19 -11 37
-30 40 -41 10 -37 -24 -17 -71 41 -24 30 -61 64 -81 75 -29 16 -32 20 -16 23
55 8 67 13 61 27 -8 21 8 18 29 -5z m-2370 -30 c-28 -12 -57 -12 -50 0 3 6 21
10 38 9 27 0 29 -2 12 -9z m467 -7 c29 -18 88 -122 88 -157 0 -8 -14 -31 -31
-51 l-32 -36 13 -260 c9 -172 11 -369 7 -582 -4 -177 -10 -470 -13 -652 -4
-207 -11 -335 -17 -343 -6 -8 -36 -27 -68 -42 -31 -16 -66 -41 -77 -55 -24
-30 -30 -30 -105 -8 l-58 18 8 75 c8 77 10 387 5 977 -3 379 6 482 49 593 35
87 33 104 -22 177 -21 29 -39 59 -39 68 0 25 67 91 124 121 l54 28 5 62 c2 34
8 67 11 73 11 17 64 13 98 -6z m-602 -12 c-18 -11 -97 -26 -89 -18 5 6 72 24
94 26 6 0 3 -4 -5 -8z m2190 -10 c18 -5 21 -8 10 -12 -22 -9 -91 2 -84 12 6
10 37 10 74 0z m-2472 -23 c-6 -17 -36 -34 -45 -24 -4 4 1 14 11 22 24 17 39
18 34 2z m441 -48 c6 -28 11 -53 11 -55 0 -3 -12 -5 -26 -5 -20 0 -25 4 -20
16 3 9 6 33 6 55 0 55 16 49 29 -11z m2204 23 c28 -30 70 -117 81 -170 7 -30
6 -32 -49 -52 -31 -12 -61 -21 -67 -21 -16 0 -88 -42 -88 -52 0 -4 -4 -8 -10
-8 -15 0 -12 92 4 136 22 60 87 194 95 194 4 0 19 -12 34 -27z m-6466 -93 c-6
-118 -17 -110 -17 11 1 75 3 99 11 87 5 -10 8 -54 6 -98z m3658 89 c-81 -26
-457 -93 -770 -139 -518 -75 -603 -89 -675 -110 -74 -23 -213 -50 -251 -50
-33 0 -62 31 -57 62 2 16 9 22 23 20 84 -10 199 -2 295 21 61 15 265 45 485
72 363 44 815 107 900 124 56 12 88 12 50 0z m4125 -9 c18 -18 28 -60 14 -60
-3 0 -36 9 -72 19 -37 11 -80 23 -97 27 l-30 7 40 13 c63 20 122 17 145 -6z
m-6292 -30 c6 0 16 10 23 21 9 17 13 19 20 8 5 -8 6 -22 3 -31 -3 -10 -3 -27
1 -37 8 -27 35 -15 35 15 0 15 6 24 15 24 8 0 15 -9 15 -21 0 -29 17 -57 56
-91 56 -49 40 -78 -21 -38 -16 11 -40 20 -52 20 -16 0 -20 5 -16 20 4 17 0 20
-25 20 -21 0 -35 8 -47 26 -13 20 -22 24 -41 20 -23 -6 -24 -4 -24 41 l0 46
23 -21 c13 -12 28 -22 35 -22z m280 18 c2 -13 -3 -18 -18 -18 -29 0 -62 19
-54 31 10 17 68 6 72 -13z m2149 -24 c38 -29 131 -166 125 -184 -3 -8 -15 -26
-27 -40 -45 -50 -47 -64 -31 -163 28 -163 37 -445 27 -862 -5 -214 -6 -438 -3
-497 4 -93 2 -108 -11 -108 -30 0 -192 63 -425 165 -131 57 -267 114 -304 127
l-68 23 0 345 c0 190 -5 385 -11 433 l-11 88 38 54 c26 39 38 68 42 103 4 45
2 51 -37 96 -23 27 -41 51 -39 55 10 21 161 151 182 157 25 6 26 9 26 79 l0
72 58 7 c31 4 111 22 177 41 144 42 244 45 292 9z m2408 16 c7 -12 -16 -80
-27 -80 -4 0 -8 20 -8 45 0 33 4 45 14 45 8 0 18 -5 21 -10z m-5591 -177 c3
-3 13 12 24 33 18 35 20 36 27 15 16 -52 -66 -105 -126 -81 -16 7 -29 16 -29
21 0 12 17 11 25 -1 13 -21 35 12 35 50 0 53 13 58 27 9 7 -23 15 -44 17 -46z
m1134 17 c2 -24 0 -55 -3 -69 -6 -24 -8 -25 -19 -8 -7 9 -18 17 -25 17 -16 0
-14 16 5 45 9 14 14 31 11 39 -7 16 2 28 17 23 6 -2 12 -23 14 -47z m1142 -14
c16 -59 11 -90 -17 -94 -21 -3 -23 1 -23 36 0 50 10 102 20 102 4 0 13 -20 20
-44z m3738 22 c20 -20 15 -76 -8 -88 -31 -17 -41 -3 -38 51 3 51 19 64 46 37z
m-4050 -49 c24 -12 57 -40 74 -63 44 -60 92 -160 80 -164 -33 -11 -77 -51 -84
-77 -11 -44 2 -106 28 -130 23 -21 23 -22 6 -71 -15 -43 -17 -89 -15 -351 1
-167 -1 -303 -5 -303 -4 0 -18 7 -31 17 -13 9 -98 48 -190 87 l-166 71 -9 48
c-7 33 -5 91 5 185 8 75 14 183 14 239 0 98 -1 103 -32 147 l-33 46 68 65 c37
36 82 70 100 77 31 12 32 13 32 76 0 37 6 75 15 92 13 26 21 30 57 30 23 0 62
-10 86 -21z m2178 13 c6 -4 13 -15 17 -24 5 -14 1 -18 -17 -18 -22 0 -36 16
-36 41 0 11 21 12 36 1z m-4916 -37 c17 -18 30 -23 47 -19 20 5 23 2 23 -20 0
-29 -5 -32 -67 -39 l-43 -5 0 54 c0 30 4 54 8 54 5 0 19 -11 32 -25z m3147
-10 c0 -8 -9 -15 -19 -15 -10 0 -18 7 -18 15 0 8 8 15 18 15 10 0 19 -7 19
-15z m-927 -55 c0 -43 -9 -49 -34 -24 -19 19 -20 36 -4 52 24 24 38 13 38 -28z
m4020 1 c-12 -24 -40 -28 -40 -7 0 16 43 48 48 35 2 -4 -2 -17 -8 -28z m-7820
-38 c12 -58 8 -135 -11 -205 -9 -36 -12 -38 -48 -38 -47 0 -88 29 -78 54 7 16
9 16 41 -3 18 -12 38 -21 44 -21 23 0 35 72 28 178 -8 115 4 132 24 35z m2810
6 c9 -35 11 -89 6 -168 -3 -64 -9 -171 -13 -238 l-6 -122 37 -42 c33 -40 66
-118 66 -160 0 -24 -20 -29 -110 -29 l-79 0 -5 298 c-3 163 -8 320 -11 348 -7
54 8 84 42 84 14 0 15 -15 9 -122 -16 -299 -17 -365 -8 -403 l9 -40 11 28 c27
64 33 165 26 396 -5 163 -4 232 3 228 6 -4 17 -30 23 -58z m1900 16 c0 -21
-19 -27 -76 -23 -46 3 -47 4 -30 21 23 23 106 24 106 2z m-3050 -35 c13 -9 13
-11 0 -20 -25 -17 -94 -8 -98 13 -3 14 4 17 40 17 24 0 50 -5 58 -10z m220
-10 c0 -13 -7 -20 -20 -20 -13 0 -20 7 -20 20 0 13 7 20 20 20 13 0 20 -7 20
-20z m350 -7 c0 -25 -1 -26 -16 -11 -9 9 -13 21 -10 27 13 20 26 11 26 -16z
m6940 -58 l0 -45 -73 0 c-82 0 -97 9 -97 57 l0 33 85 0 85 0 0 -45z m-7496 7
c32 -6 36 -9 25 -19 -23 -19 -101 -21 -129 -3 -13 9 -13 11 0 20 17 11 48 12
104 2z m3031 -11 c18 -7 17 -9 -12 -24 -41 -22 -89 -22 -97 -1 -3 9 -4 20 0
25 6 11 81 11 109 0z m-4017 -27 c38 -25 25 -34 -47 -34 -70 0 -101 14 -101
44 0 17 117 9 148 -10z m1507 -4 c0 -20 -29 -34 -58 -26 -30 7 -35 30 -11 44
22 12 69 0 69 -18z m1685 -5 c-17 -20 -73 -29 -117 -18 -37 9 -37 10 -15 21
28 16 136 30 140 19 2 -4 -1 -14 -8 -22z m-293 3 c19 -21 43 -85 43 -115 0 -7
-9 -13 -20 -13 -10 0 -23 -8 -29 -17 -7 -14 -11 -10 -19 22 -6 22 -12 64 -15
93 -5 58 6 66 40 30z m6033 -18 c0 -5 -21 -10 -46 -10 -27 0 -43 4 -39 10 3 6
24 10 46 10 21 0 39 -4 39 -10z m-8815 -60 c0 -14 -71 -42 -95 -38 -9 2 3 14
30 30 48 27 65 30 65 8z m-208 -43 c23 -13 31 -23 24 -30 -15 -15 -68 10 -91
43 -27 38 -25 46 7 25 14 -10 42 -27 60 -38z m1533 -63 c26 -47 -20 -66 -102
-43 l-38 10 0 74 0 75 64 -46 c35 -25 69 -57 76 -70z m7415 101 c22 0 57 3 78
7 35 6 37 5 37 -18 0 -29 -50 -64 -93 -64 -54 0 -97 34 -97 77 0 11 5 13 18 7
9 -4 35 -8 57 -9z m-4975 -29 c0 -34 -35 -75 -51 -59 -10 10 -7 20 12 48 28
41 39 44 39 11z m4526 9 c-26 -20 -76 -20 -76 0 0 11 12 15 48 15 43 -1 46 -2
28 -15z m-5296 -30 c0 -20 -5 -25 -26 -25 -25 0 -25 6 -1 38 15 19 27 14 27
-13z m-3326 2 l29 -13 -39 -17 c-21 -9 -83 -24 -136 -32 -54 -9 -104 -18 -112
-21 -10 -4 -16 4 -21 25 -3 17 -7 34 -8 38 -6 26 233 43 287 20z m-484 -67
c84 -1 85 -1 63 -19 -47 -39 -140 -35 -197 10 -37 29 -32 39 12 23 20 -7 75
-13 122 -14z m1545 12 c0 -18 -20 -15 -23 4 -3 10 1 15 10 12 7 -3 13 -10 13
-16z m4407 -405 c-3 -409 -9 -560 -23 -551 -5 3 -9 222 -9 487 0 458 1 480 18
464 16 -16 17 -47 14 -400z m575 181 c-1 -87 -5 -158 -8 -158 -13 0 -18 104
-12 242 9 193 24 131 20 -84z m-2827 148 c3 -32 2 -60 -2 -62 -4 -3 -16 4 -28
16 -22 22 -27 79 -8 98 22 22 33 7 38 -52z m130 -15 c0 -68 0 -69 -31 -80 -18
-6 -46 -11 -63 -11 l-31 1 37 19 c48 26 68 56 68 102 0 21 5 38 10 38 6 0 10
-30 10 -69z m-1166 53 c18 -7 12 -24 -10 -24 -8 0 -14 7 -14 15 0 17 2 18 24
9z m6964 -16 c-2 -18 -10 -23 -33 -23 -23 0 -31 5 -33 23 -3 19 1 22 33 22 32
0 36 -3 33 -22z m-8114 -4 c20 -8 11 -24 -15 -24 -19 0 -25 11 -12 23 8 8 8 8
27 1z m-1641 -62 c27 -24 20 -37 -29 -51 -55 -16 -64 -9 -64 56 l0 42 38 -16
c20 -8 45 -22 55 -31z m1856 39 c20 -13 0 -37 -38 -44 -35 -7 -104 10 -95 24
15 25 104 38 133 20z m427 -51 c32 -11 142 -63 244 -114 102 -51 202 -99 223
-106 21 -6 37 -14 35 -16 -7 -7 -173 37 -310 81 -196 64 -328 94 -446 102
l-103 6 32 21 c94 59 202 68 325 26z m781 -57 c-2 -16 -4 -3 -4 27 0 30 2 43
4 28 2 -16 2 -40 0 -55z m428 48 c13 -26 13 -41 1 -120 -7 -50 -11 -102 -8
-116 6 -33 -11 -32 -26 0 -21 46 -10 265 13 265 3 0 11 -13 20 -29z m-3040
-11 c0 -16 -6 -26 -17 -28 -14 -3 -18 3 -18 28 0 25 4 31 18 28 11 -2 17 -12
17 -28z m5444 -975 c-6 -93 -14 -198 -16 -232 -5 -71 13 -122 54 -148 36 -24
69 -12 83 30 6 19 20 39 29 45 16 8 19 3 24 -43 3 -29 8 -60 12 -69 10 -25
-46 -32 -182 -24 -68 4 -112 2 -109 -3 3 -5 -3 -7 -14 -4 -36 10 -32 22 12 33
24 6 48 13 54 15 8 2 13 103 17 347 2 189 13 505 23 703 l19 360 3 -420 c1
-246 -2 -490 -9 -590z m909 848 c-2 -62 -6 -113 -10 -113 -5 0 -8 57 -8 128 0
86 3 122 10 112 5 -8 9 -66 8 -127z m-5045 106 c87 -10 105 -14 96 -25 -6 -8
-9 -21 -5 -29 8 -23 -34 -29 -138 -20 -50 4 -127 10 -170 14 -44 3 -81 11 -82
16 -9 29 93 67 161 59 17 -2 78 -9 138 -15z m1955 9 c8 -8 12 -45 12 -101 0
-79 -2 -88 -17 -85 -31 6 -47 74 -34 141 13 59 18 66 39 45z m-2728 -8 c0 -6
-29 -10 -68 -10 -51 0 -80 -6 -118 -24 -76 -37 -84 -38 -84 -16 0 12 9 22 24
26 14 3 27 12 30 20 4 11 29 14 111 14 63 0 105 -4 105 -10z m2968 -48 c3 -11
-31 -22 -75 -22 -30 0 -44 16 -27 32 9 9 98 1 102 -10z m-3938 -35 c0 -8 -9
-22 -20 -32 -11 -10 -20 -25 -20 -34 0 -11 -3 -12 -11 -4 -6 6 -8 25 -4 47 6
29 12 36 31 36 13 0 24 -6 24 -13z m4669 -360 c12 -931 9 -1022 -36 -1058 -14
-12 -15 55 -10 681 3 382 8 707 12 723 4 15 12 27 19 27 8 0 12 -104 15 -373z
m-3682 348 c-11 -7 -25 -11 -33 -8 -25 10 -15 23 19 23 30 -1 31 -2 14 -15z
m-829 -36 c15 -24 10 -34 -13 -26 -15 6 -22 47 -7 47 4 0 13 -9 20 -21z m4682
-479 c2 -449 -10 -915 -21 -825 -27 224 -29 833 -2 1215 l7 115 8 -65 c4 -36
8 -234 8 -440z m-2960 450 c63 -11 115 -20 115 -20 0 0 1 -18 2 -40 2 -25 -2
-42 -10 -44 -47 -15 -48 -15 -37 -36 13 -24 66 -52 133 -70 26 -7 47 -17 47
-21 0 -12 -53 -11 -84 1 -59 22 -239 51 -356 57 -119 6 -191 23 -155 36 25 10
17 27 -22 44 -27 11 -72 16 -150 17 -62 1 -113 4 -113 9 0 9 12 10 76 7 27 -1
77 3 111 9 35 7 70 8 83 3 32 -12 95 11 95 34 0 38 98 43 265 14z m-1880 -57
c0 -10 -6 -13 -16 -9 -9 3 -20 6 -25 6 -14 0 -11 28 4 33 16 6 37 -11 37 -30z
m3547 -85 c5 -110 17 -146 49 -154 29 -7 30 -12 7 -30 -19 -14 -120 -19 -161
-8 -36 10 -20 28 29 34 40 5 44 7 41 30 -6 55 -4 177 3 209 12 57 27 20 32
-81z m-177 58 c0 -45 -73 -78 -182 -84 -99 -5 -112 5 -48 38 58 30 230 64 230
46z m-3222 -52 c43 -7 41 -21 -5 -30 -81 -16 -156 -6 -172 24 -8 16 -3 17 67
14 43 -1 92 -5 110 -8z m2488 -25 c19 -22 19 -22 -3 -10 -24 12 -39 31 -25 31
5 0 17 -10 28 -21z m1254 -1 c0 -19 -2 -20 -10 -8 -13 19 -13 30 0 30 6 0 10
-10 10 -22z m-1015 -44 c9 -9 14 -21 12 -27 -6 -20 -26 -19 -44 2 -9 12 -26
21 -36 21 -10 0 -15 5 -12 10 10 16 62 12 80 -6z m-1047 -19 c7 -6 -9 -45 -24
-60 -17 -17 -64 -21 -64 -5 0 5 11 17 25 26 18 12 24 22 19 36 -5 17 -3 19 18
13 12 -4 25 -9 26 -10z m967 -12 l55 -27 0 -73 0 -72 -30 6 c-28 5 -30 3 -30
-23 0 -16 14 -49 31 -74 29 -42 29 -45 11 -48 -22 -3 -96 30 -107 48 -4 6 -1
17 5 25 12 15 11 39 -8 123 -5 24 -6 42 0 42 4 0 11 -14 15 -30 3 -17 10 -33
14 -36 18 -11 46 7 62 41 l17 35 -42 7 c-44 6 -88 41 -88 68 0 22 32 18 95
-12z m1100 -563 c-4 -267 -10 -555 -14 -640 l-6 -155 -9 120 c-8 113 -5 426
11 1015 5 203 9 244 16 200 5 -32 6 -260 2 -540z m155 533 c0 -22 -2 -25 -10
-13 -13 20 -13 40 0 40 6 0 10 -12 10 -27z m-3886 -11 c74 -43 52 -82 -46 -82
-57 0 -58 0 -78 40 -34 66 -29 73 38 65 31 -4 70 -14 86 -23z m2893 -90 c56
-36 101 -67 99 -69 -6 -6 -152 59 -198 89 -43 27 -68 54 -68 73 0 9 59 -23
167 -93z m1104 61 c5 -14 7 -28 5 -31 -11 -10 -36 21 -36 45 0 29 17 22 31
-14z m2456 -405 c-1 -185 1 -339 5 -343 11 -12 77 15 93 38 8 12 15 43 15 71
0 79 17 41 23 -50 l5 -82 -55 -7 c-58 -7 -177 2 -170 14 35 65 60 133 59 161
-1 19 2 172 5 340 5 216 9 289 15 250 4 -30 7 -206 5 -392z m153 255 c0 -89
-4 -143 -10 -143 -6 0 -10 59 -10 158 0 105 4 152 10 142 5 -8 10 -79 10 -157z
m-2716 46 c-1 -41 -5 -289 -9 -551 -4 -263 -11 -478 -15 -478 -38 0 -44 232
-16 605 9 121 17 284 18 362 2 90 7 142 13 139 6 -2 9 -35 9 -77z m-730 50
c31 -25 35 -72 10 -156 -9 -30 -14 -57 -11 -59 3 -3 18 1 35 10 25 13 72 12
72 -1 0 -3 -8 -15 -18 -28 -15 -19 -21 -21 -35 -10 -36 26 -67 2 -51 -40 8
-20 81 -58 88 -46 3 5 12 34 21 66 15 61 8 95 -20 95 -8 0 -15 5 -15 10 0 6
25 10 56 10 60 0 58 3 36 -49 -4 -12 9 -13 79 -8 110 7 122 13 116 46 -7 36 5
57 22 38 8 -10 9 -33 5 -71 -6 -53 -8 -56 -39 -62 -17 -3 -55 -1 -83 4 -64 11
-75 1 -66 -57 4 -26 3 -41 -4 -41 -11 0 -32 53 -32 82 0 11 -4 16 -10 13 -6
-3 -10 -49 -10 -103 l0 -96 -40 39 c-33 32 -40 36 -46 21 -3 -9 1 -36 10 -59
31 -81 18 -97 -37 -46 -34 31 -34 32 -16 50 11 11 19 33 19 49 0 25 -4 30 -25
30 -39 0 -48 31 -43 144 6 122 -3 155 -44 163 l-30 6 31 13 c23 10 31 19 31
39 0 30 9 31 44 4z m-149 -10 c11 -16 1 -20 -33 -13 -18 4 -29 10 -26 15 7 13
51 11 59 -2z m423 -5 c30 -9 24 -25 -19 -46 -39 -21 -92 -23 -138 -7 -31 11
-56 41 -44 53 8 8 171 8 201 0z m-664 -136 c4 -22 4 -43 1 -47 -14 -13 -35 35
-35 78 1 41 2 44 14 28 7 -9 16 -36 20 -59z m-2849 -60 c-4 -13 -8 -33 -9 -45
-1 -27 -9 -29 -25 -9 -10 11 -9 21 4 45 18 36 41 42 30 9z m2703 -19 c124 -32
140 -39 257 -110 81 -49 177 -89 215 -89 13 0 24 -11 34 -34 8 -18 19 -37 25
-40 6 -4 11 -12 11 -17 0 -6 -12 -2 -27 9 -16 11 -95 55 -178 99 -82 43 -162
87 -177 97 -28 18 -28 18 -28 -5 0 -13 -12 -60 -27 -104 -23 -71 -27 -77 -36
-57 -7 16 -7 47 -1 95 10 67 9 73 -12 94 -12 12 -37 24 -55 27 -19 3 -51 8
-72 11 -38 6 -77 35 -77 56 0 7 7 8 18 4 9 -4 68 -20 130 -36z m324 -71 c32
-17 78 -49 101 -70 l42 -38 -100 52 c-94 48 -185 104 -185 113 0 8 82 -25 142
-57z m602 10 c3 -13 3 -53 -1 -91 -5 -62 -7 -66 -23 -52 -23 21 -36 19 -54 -7
-24 -33 -20 -38 29 -38 47 0 56 -9 29 -31 -18 -14 -184 -26 -184 -13 1 5 15
18 33 29 34 22 50 65 23 65 -8 0 -21 -9 -29 -20 -18 -25 -27 -16 -27 28 0 31
2 34 23 27 12 -4 36 -8 52 -9 l30 -1 -3 53 c-2 41 1 52 12 52 19 0 36 -31 36
-67 0 -43 18 -9 26 50 7 51 18 61 28 25z m2338 -156 c4 -154 0 -214 -13 -239
-7 -13 -15 -23 -18 -23 -3 0 -7 88 -9 196 -3 195 -3 195 17 184 19 -10 21 -21
23 -118z m-1696 33 c61 -30 120 -55 131 -55 17 0 21 -11 32 -117 30 -274 25
-462 -15 -585 l-15 -47 -47 5 c-28 3 -74 -2 -115 -13 l-68 -18 30 -42 c18 -25
44 -46 65 -54 20 -7 36 -16 36 -21 0 -12 -36 -28 -64 -28 -14 0 -31 -9 -39
-20 -11 -17 -19 -19 -38 -11 -35 13 -62 47 -103 128 -29 59 -33 73 -21 83 10
9 23 6 54 -9 22 -12 45 -21 51 -21 22 0 8 18 -25 34 -19 9 -35 22 -35 29 0 16
25 54 62 93 28 30 30 38 40 167 13 159 2 295 -32 397 -16 51 -31 74 -68 107
-39 35 -44 44 -32 53 28 19 104 0 216 -55z m-1402 -74 c27 -40 28 -45 17 -83
-25 -82 -152 -168 -249 -168 -37 0 -114 30 -126 48 -3 5 16 12 44 15 142 17
229 87 255 205 9 41 22 37 59 -17z m1204 15 c42 -49 57 -98 57 -196 0 -75 -4
-92 -30 -144 -17 -33 -40 -66 -52 -74 l-22 -14 2 231 c1 127 5 231 8 231 4 0
20 -15 37 -34z m-914 -59 l34 -24 -24 -46 c-13 -26 -46 -81 -74 -123 -54 -79
-100 -168 -100 -194 0 -12 -13 -16 -60 -15 -53 0 -60 2 -65 23 -13 54 13 102
110 198 82 81 96 101 110 149 9 30 20 55 25 55 5 0 25 -11 44 -23z m261 -51
c44 -1 94 6 133 18 77 24 88 17 74 -45 -5 -24 -10 -34 -11 -22 -1 12 -5 24
-11 28 -5 3 -45 -3 -89 -15 -129 -33 -157 -28 -206 35 l-27 37 33 -17 c21 -11
59 -18 104 -19z m-65 -137 c11 -19 8 -75 -6 -150 l-5 -27 -41 16 c-22 9 -42
21 -45 28 -5 15 64 154 77 154 5 0 14 -9 20 -21z m3163 -134 c9 -26 12 -47 6
-50 -17 -11 -29 6 -29 41 0 19 -5 34 -11 34 -5 0 -7 5 -4 10 12 20 23 9 38
-35z m-2895 7 c2 -7 -6 -12 -17 -12 -21 0 -27 11 -14 24 9 9 26 2 31 -12z
m1934 -112 c52 -20 117 -65 107 -74 -2 -3 -24 4 -48 15 -55 24 -76 24 -94 -1
-8 -11 -17 -17 -20 -13 -8 7 -10 93 -2 93 2 0 28 -9 57 -20z m726 -37 c-2 -12
-14 -19 -36 -21 -27 -3 -32 0 -32 17 0 17 6 21 36 21 28 0 35 -3 32 -17z
m-370 -20 c41 -8 98 -13 128 -11 30 3 54 3 54 2 0 -2 -24 -10 -52 -19 -109
-32 -327 -43 -275 -13 21 11 22 37 2 44 -8 4 -15 11 -15 16 0 11 43 6 158 -19z
m-2284 -20 c4 -9 4 -42 0 -74 l-6 -57 -44 15 c-25 8 -49 24 -55 34 -12 24 1
25 42 3 17 -8 33 -13 36 -10 8 8 -7 27 -29 35 -18 6 -18 8 9 38 33 37 39 39
47 16z m1202 -115 l6 -36 -97 -17 c-146 -27 -273 -8 -292 42 -14 35 23 43 166
37 128 -6 138 -5 161 14 31 25 48 13 56 -40z m-901 -37 c-11 -29 -27 6 -19 41
l7 33 9 -30 c4 -16 6 -36 3 -44z m2773 57 c19 -19 15 -66 -7 -77 -14 -8 -22
-6 -35 8 -20 22 -20 40 1 63 19 21 25 22 41 6z m-1090 -59 c7 -23 10 -44 7
-47 -11 -12 -60 36 -63 61 -3 22 1 27 20 27 18 0 26 -8 36 -41z m493 0 c-2 -8
-3 -24 -3 -36 0 -17 -12 -26 -59 -43 -60 -22 -82 -43 -94 -92 -5 -20 -3 -28 6
-28 7 0 10 -3 6 -6 -11 -11 -47 7 -47 24 0 9 11 35 25 57 13 22 25 52 25 67 0
26 3 27 58 30 52 3 57 5 56 26 0 16 4 22 15 19 9 -2 14 -10 12 -18z m-1181
-55 c0 -8 -11 -14 -26 -14 -14 0 -23 3 -21 8 2 4 7 15 11 26 5 15 9 16 21 6 8
-7 15 -19 15 -26z m-972 -35 c23 -17 54 -34 69 -38 l28 -8 -25 -13 c-14 -8
-62 -15 -110 -17 -47 -1 -93 -4 -102 -5 -33 -6 -22 16 22 42 25 14 49 36 55
48 5 12 12 22 15 22 4 0 25 -14 48 -31z m-258 -19 c6 -11 23 -26 38 -34 24
-13 25 -15 9 -22 -10 -3 -29 -2 -43 5 -14 6 -34 11 -46 11 -39 0 9 -38 58 -46
47 -7 51 -24 6 -24 -31 0 -102 44 -102 63 0 7 7 21 15 31 8 11 15 28 15 38 0
16 3 17 20 8 11 -6 24 -19 30 -30z m985 30 c-3 -5 -33 -10 -66 -10 -38 0 -58
4 -54 10 3 6 33 10 66 10 38 0 58 -4 54 -10z m-218 -31 c26 -16 31 -24 21 -30
-37 -24 -97 2 -84 36 7 20 22 19 63 -6z m506 15 c14 -15 -8 -34 -39 -34 -36 0
-42 8 -22 28 13 13 50 16 61 6z m-323 -57 c0 -6 -14 -20 -31 -29 -17 -10 -27
-22 -24 -28 3 -5 2 -10 -4 -10 -21 0 -22 22 -2 44 22 24 28 46 11 46 -5 0 -10
5 -10 10 0 6 13 4 30 -5 17 -9 30 -21 30 -28z m216 4 c-18 -18 -46 -7 -46 18
0 17 3 18 30 8 26 -10 28 -13 16 -26z m-76 0 c5 -11 10 -32 10 -46 0 -25 -3
-27 -27 -20 -41 10 -47 20 -33 54 14 35 35 40 50 12z m1780 -26 c0 -20 -5 -25
-25 -25 -20 0 -25 5 -25 25 0 20 5 25 25 25 20 0 25 -5 25 -25z m-482 -7 c-3
-7 -22 -14 -43 -16 -34 -3 -37 -2 -26 12 16 19 75 22 69 4z m92 -7 c0 -18 -34
-51 -52 -51 -13 0 -9 19 8 45 19 30 44 33 44 6z m-330 -26 c44 -72 -2 -112
-91 -80 -24 9 -52 19 -61 22 -39 12 -15 22 47 20 71 -2 89 9 82 51 -6 30 -2
28 23 -13z m-993 -87 c-2 -62 -2 -63 26 -66 21 -3 27 -8 23 -19 -3 -8 -6 -19
-6 -24 0 -6 -6 -9 -12 -7 -7 1 -41 -8 -76 -21 -34 -13 -65 -21 -68 -19 -9 10
17 62 51 99 29 33 33 42 28 78 -5 37 -3 41 16 41 19 0 21 -5 18 -62z m1733 52
c0 -5 -20 -10 -45 -10 -25 0 -45 5 -45 10 0 6 20 10 45 10 25 0 45 -4 45 -10z
m-2968 -55 c-7 -38 -22 -30 -22 11 0 30 3 34 14 25 7 -6 11 -22 8 -36z m283
15 c-3 -5 -15 -10 -25 -10 -10 0 -22 5 -25 10 -4 6 7 10 25 10 18 0 29 -4 25
-10z m1075 -44 c0 -29 -15 -56 -29 -56 -5 0 -7 76 -2 104 3 22 31 -20 31 -48z
m-1202 -11 c-13 -30 -39 -32 -55 -6 -15 24 -8 31 33 31 32 0 33 -1 22 -25z
m113 -38 c11 -21 19 -41 16 -43 -2 -2 -19 6 -38 19 -35 23 -45 46 -35 74 9 21
31 2 57 -50z m1927 31 c17 -11 32 -24 32 -29 0 -15 -117 -10 -160 7 -32 13
-38 19 -30 30 24 28 104 24 158 -8z m-1108 -69 c0 -6 -15 -31 -32 -56 -23 -31
-34 -40 -36 -29 -2 8 8 31 22 49 14 19 26 39 26 46 0 7 5 9 10 6 6 -3 10 -11
10 -16z m-1157 -10 c-6 -21 -50 -56 -59 -46 -11 11 8 48 29 57 33 13 36 12 30
-11z m2252 -9 c-3 -5 -15 -10 -26 -10 -10 0 -19 5 -19 10 0 6 12 10 26 10 14
0 23 -4 19 -10z m-2156 -65 c18 -59 20 -77 10 -103 -6 -15 -16 -30 -22 -34
-29 -18 -34 -7 -33 80 0 77 2 88 18 88 11 0 21 -12 27 -31z m416 5 c0 -29 -48
-61 -65 -44 -8 8 -4 20 16 43 30 36 49 36 49 1z m1825 -10 c0 -10 -8 -35 -17
-55 -16 -34 -19 -36 -62 -33 -27 2 -46 8 -49 17 -4 11 2 13 27 8 36 -8 66 15
77 58 7 30 24 33 24 5z m682 -2 c35 -10 37 -12 19 -25 -11 -7 -27 -36 -36 -64
l-18 -52 -12 29 c-6 16 -20 35 -29 43 -9 8 -26 27 -38 44 -17 24 -18 31 -7 38
15 10 59 5 121 -13z m-1751 -48 c-27 -23 -61 -26 -61 -7 0 21 11 27 49 27 l36
-1 -24 -19z m-176 -25 c0 -15 -77 -19 -86 -4 -4 7 -6 16 -4 19 6 10 90 -4 90
-15z m1985 -45 c0 -33 -4 -60 -10 -60 -6 0 -10 27 -10 60 0 33 4 60 10 60 6 0
10 -27 10 -60z m280 51 c0 -5 -18 -24 -40 -41 -48 -38 -52 -29 -8 17 32 33 48
41 48 24z m-470 -57 c0 -34 -4 -53 -10 -49 -18 11 -12 105 7 105 2 0 3 -25 3
-56z m-604 -4 c15 0 23 -4 19 -10 -7 -11 -85 -10 -85 1 0 12 14 19 28 14 7 -3
25 -5 38 -5z m14 -60 c0 -11 -37 -20 -82 -20 -38 0 -46 8 -29 26 12 11 111 6
111 -6z m-1990 -37 c0 -45 -14 -73 -29 -58 -11 11 8 95 21 95 4 0 8 -17 8 -37z
m877 20 c-24 -13 -147 -17 -210 -6 -69 11 -18 20 108 19 103 -1 120 -3 102
-13z m-747 -53 c0 -17 -7 -20 -47 -20 l-48 1 24 19 c31 27 71 27 71 0z m1941
8 c4 -29 -3 -94 -10 -101 -4 -4 -13 -2 -19 6 -16 19 -4 107 14 107 8 0 15 -6
15 -12z m-1261 -57 c0 -53 16 -75 46 -65 18 5 18 5 0 -10 -20 -16 -89 -20
-134 -7 l-24 6 32 40 c21 26 30 47 27 62 -4 20 0 23 24 23 28 0 29 -2 29 -49z
m1178 11 c4 -35 -16 -44 -37 -18 -9 11 -10 20 -1 36 16 29 34 20 38 -18z
m-123 -41 c-11 -29 -27 6 -19 41 l7 33 9 -30 c4 -16 6 -36 3 -44z m-950 -81
c-22 -36 -162 -56 -225 -32 l-25 10 25 5 c14 3 70 10 125 15 55 5 101 10 103
10 2 1 0 -3 -3 -8z m-918 -46 c6 -17 -27 -124 -38 -124 -18 0 -20 25 -8 81 13
58 33 77 46 43z m972 -129 c-14 -14 -43 20 -35 42 7 16 9 16 26 -7 12 -16 15
-28 9 -35z m221 25 c-9 -17 -58 -50 -75 -50 -13 0 13 32 41 51 37 24 47 24 34
-1z m-250 -115 c0 -27 -7 -51 -19 -66 -22 -28 -38 -20 -22 9 6 12 11 44 11 73
0 45 2 50 15 39 9 -8 15 -29 15 -55z m-840 40 c0 -2 -15 -12 -32 -22 -43 -22
-172 -24 -208 -3 -23 14 -17 15 100 20 69 3 128 7 133 8 4 1 7 0 7 -3z m6
-127 c-3 -13 -6 -29 -6 -35 0 -18 -27 -16 -34 2 -3 8 -12 15 -21 15 -8 0 -15
4 -15 10 0 13 31 29 59 30 19 0 22 -4 17 -22z m74 -120 c0 -50 -16 -56 -30
-12 -8 24 -17 34 -26 30 -24 -9 -27 21 -8 69 l19 46 22 -48 c13 -26 23 -65 23
-85z m-290 -34 c0 -13 -4 -24 -10 -24 -5 0 -10 14 -10 31 0 17 4 28 10 24 6
-3 10 -17 10 -31z m144 -3 c8 -13 -33 -101 -47 -101 -7 1 -23 7 -37 15 l-25
14 38 15 c29 13 37 22 37 41 0 24 23 35 34 16z"/>
<path d="M5449 8524 c-1 -5 -1 -12 0 -16 0 -4 -6 -23 -15 -43 -14 -34 -12 -55
5 -55 10 0 25 109 17 118 -3 3 -7 1 -7 -4z"/>
<path d="M5392 8318 c-7 -29 -15 -63 -18 -75 -4 -13 -2 -23 4 -23 5 0 17 29
26 65 18 72 19 85 8 85 -4 0 -13 -24 -20 -52z"/>
<path d="M5342 8114 c-14 -51 -15 -74 -4 -74 8 0 32 70 32 94 0 34 -17 22 -28
-20z"/>
<path d="M5312 7985 c-1 -11 -13 -55 -27 -98 -26 -82 -32 -132 -15 -142 6 -4
10 6 10 22 0 16 9 57 21 90 12 38 19 78 16 105 -2 23 -4 34 -5 23z"/>
<path d="M5232 7667 c-14 -39 -15 -67 -3 -67 9 0 26 88 19 96 -2 2 -10 -11
-16 -29z"/>
<path d="M3662 8259 c-8 -26 -9 -46 -4 -51 6 -6 14 8 21 36 13 53 13 56 3 56
-4 0 -13 -19 -20 -41z"/>
<path d="M3635 8159 c-7 -21 -35 -132 -35 -141 0 -4 4 -8 8 -8 10 0 46 149 38
157 -3 3 -8 0 -11 -8z"/>
<path d="M3552 7850 c-14 -47 -15 -60 -3 -60 5 0 12 16 15 36 4 19 10 42 13
50 3 8 1 14 -3 14 -5 0 -15 -18 -22 -40z"/>
<path d="M2990 7700 c0 -5 9 -10 19 -10 11 0 23 5 26 10 4 6 -5 10 -19 10 -14
0 -26 -4 -26 -10z"/>
<path d="M3070 7680 c0 -5 20 -10 45 -10 25 0 45 5 45 10 0 6 -20 10 -45 10
-25 0 -45 -4 -45 -10z"/>
<path d="M5101 8391 c-21 -13 -7 -51 35 -96 23 -26 31 -31 21 -14 -8 14 -18
47 -22 72 -8 49 -11 53 -34 38z"/>
<path d="M5132 8150 c-8 -25 -20 -67 -28 -94 -17 -59 -18 -76 -4 -76 6 0 10 9
10 20 0 10 9 43 21 71 11 29 19 68 17 88 l-3 36 -13 -45z"/>
<path d="M5058 7878 c-15 -42 -14 -68 1 -68 4 0 8 6 8 13 0 6 3 31 7 55 4 23
6 42 3 42 -3 0 -12 -19 -19 -42z"/>
<path d="M5022 7737 c-14 -39 -15 -57 -4 -57 5 0 13 20 19 45 12 52 2 60 -15
12z"/>
<path d="M4970 7560 c0 -12 -20 -40 -45 -64 -25 -25 -45 -49 -45 -55 0 -23 36
-9 53 20 13 23 23 30 37 26 18 -5 20 0 20 44 0 27 -4 49 -10 49 -5 0 -10 -9
-10 -20z"/>
<path d="M3765 7855 c-4 -16 -21 -55 -37 -85 -27 -51 -30 -90 -8 -90 12 0 63
165 58 187 -4 14 -7 11 -13 -12z"/>
<path d="M2555 7020 c3 -5 15 -10 25 -10 10 0 22 5 25 10 4 6 -7 10 -25 10
-18 0 -29 -4 -25 -10z"/>
<path d="M3353 6856 c22 -21 38 -26 75 -25 l47 0 -55 18 c-30 10 -64 22 -75
26 -15 5 -14 1 8 -19z"/>
<path d="M3568 6800 c49 -18 82 -18 82 -1 0 4 -6 8 -12 8 -7 0 -38 3 -68 6
l-55 7 53 -20z"/>
<path d="M3710 6780 c0 -5 11 -10 25 -10 14 0 25 5 25 10 0 6 -11 10 -25 10
-14 0 -25 -4 -25 -10z"/>
<path d="M3880 6740 c0 -5 8 -10 17 -10 9 0 31 -5 49 -12 17 -6 40 -8 50 -3
14 5 4 11 -41 21 -75 16 -75 16 -75 4z"/>
<path d="M5487 5144 c-11 -11 13 -34 35 -34 13 0 18 6 16 18 -3 17 -38 29 -51
16z"/>
<path d="M662 6184 c11 -11 23 -14 35 -9 17 7 17 8 -2 15 -11 5 -27 9 -35 9
-12 1 -11 -2 2 -15z"/>
<path d="M785 6142 c6 -5 65 -32 131 -60 112 -46 238 -82 249 -70 3 3 -34 19
-82 36 -49 16 -124 43 -168 59 -94 35 -144 48 -130 35z"/>
<path d="M1230 5973 c14 -3 60 -21 104 -40 82 -37 165 -56 152 -35 -4 7 -15
12 -25 12 -10 0 -54 16 -98 35 -51 22 -95 35 -120 34 -27 -1 -31 -3 -13 -6z"/>
<path d="M5776 5161 c-7 -10 62 -21 84 -12 11 4 8 7 -10 12 -37 10 -68 10 -74
0z"/>
<path d="M6491 1736 c-9 -11 -5 -15 25 -21 38 -7 62 5 50 24 -10 16 -61 14
-75 -3z"/>
<path d="M1095 2833 c-134 -121 -155 -142 -155 -158 0 -34 179 113 200 165 7
17 11 32 9 35 -2 2 -27 -17 -54 -42z"/>
<path d="M2015 2796 c-27 -12 -194 -146 -182 -146 13 0 171 70 210 93 43 25
88 67 71 67 -5 -1 -20 -7 -34 -15 -32 -19 -44 -19 -36 0 3 8 4 15 3 15 -1 -1
-16 -7 -32 -14z"/>
<path d="M1125 2770 c-3 -5 -52 -41 -108 -79 -98 -67 -161 -121 -141 -121 17
0 158 74 194 102 37 28 89 108 71 108 -5 0 -13 -4 -16 -10z"/>
<path d="M3772 1885 c9 -9 171 -106 211 -127 37 -18 42 -19 76 -4 20 8 63 18
96 22 59 6 115 27 115 42 0 5 -59 -4 -130 -18 l-131 -27 -71 45 c-39 24 -89
50 -111 58 -40 14 -64 18 -55 9z"/>
<path d="M6902 1256 c-23 -24 -58 -77 -78 -118 -20 -40 -45 -86 -56 -101 -11
-16 -18 -30 -15 -33 10 -10 93 64 124 110 28 41 78 174 69 183 -2 2 -21 -17
-44 -41z"/>
<path d="M5986 1028 c-30 -51 -70 -109 -90 -127 -42 -41 -45 -36 -11 19 25 40
31 65 18 73 -8 5 -135 -198 -149 -238 -11 -27 97 59 174 139 61 63 104 136
115 194 4 17 5 32 2 32 -2 0 -28 -42 -59 -92z"/>
</g>
</svg>
