<?xml version="1.0" encoding="iso-8859-1"?>
<!-- Generator: Adobe Illustrator 19.0.0, SVG Export Plug-In . SVG Version: 6.00 Build 0)  -->
<svg version="1.1" id="Layer_1" xmlns="http://www.w3.org/2000/svg" xmlns:xlink="http://www.w3.org/1999/xlink" x="0px" y="0px"
	 viewBox="0 0 479.469 479.469" style="enable-background:new 0 0 479.469 479.469;" xml:space="preserve">
<g>
	<g>
		<path d="M471.969,74.021c4.142,0,7.5-3.357,7.5-7.5s-3.358-7.5-7.5-7.5h-21.737l4.467-46.063c0.204-2.104-0.49-4.198-1.912-5.765
			c-1.421-1.565-3.438-2.459-5.553-2.459h-415c-2.115,0-4.132,0.894-5.553,2.459c-1.422,1.566-2.116,3.66-1.912,5.765l4.467,46.063
			H7.5c-4.142,0-7.5,3.357-7.5,7.5s3.358,7.5,7.5,7.5h23.191l5.264,54.285H14.219c-4.142,0-7.5,3.357-7.5,7.5s3.358,7.5,7.5,7.5
			H37.41l5.265,54.286H20.938c-4.142,0-7.5,3.357-7.5,7.5s3.358,7.5,7.5,7.5H44.13l5.264,54.285H27.657c-4.142,0-7.5,3.357-7.5,7.5
			s3.358,7.5,7.5,7.5h23.192l5.265,54.286H34.376c-4.142,0-7.5,3.357-7.5,7.5s3.358,7.5,7.5,7.5h23.192l5.264,54.285H41.095
			c-4.142,0-7.5,3.357-7.5,7.5s3.358,7.5,7.5,7.5h23.192l4.607,47.51c0.373,3.844,3.603,6.776,7.465,6.776h326.75
			c3.862,0,7.092-2.933,7.465-6.776l4.607-47.51h23.192c4.142,0,7.5-3.357,7.5-7.5s-3.358-7.5-7.5-7.5h-21.738l5.264-54.285h23.192
			c4.142,0,7.5-3.357,7.5-7.5s-3.358-7.5-7.5-7.5h-21.737l5.265-54.286h23.192c4.142,0,7.5-3.357,7.5-7.5s-3.358-7.5-7.5-7.5
			h-21.737l5.264-54.285h23.192c4.142,0,7.5-3.357,7.5-7.5s-3.358-7.5-7.5-7.5h-21.737l5.265-54.286h23.192
			c4.142,0,7.5-3.357,7.5-7.5s-3.358-7.5-7.5-7.5h-21.737l5.264-54.285H471.969z M396.301,459.734H83.167l-3.81-39.286h65.527
			c3.096,8.729,11.432,15,21.21,15c9.778,0,18.114-6.271,21.21-15h104.859c3.096,8.729,11.432,15,21.21,15
			c9.778,0,18.114-6.271,21.21-15h65.527L396.301,459.734z M158.595,412.948c0-4.136,3.364-7.5,7.5-7.5c4.136,0,7.5,3.364,7.5,7.5
			s-3.364,7.5-7.5,7.5C161.959,420.448,158.595,417.084,158.595,412.948z M305.874,412.948c0-4.136,3.364-7.5,7.5-7.5
			s7.5,3.364,7.5,7.5s-3.364,7.5-7.5,7.5S305.874,417.084,305.874,412.948z M401.566,405.448h-15.07l3.012-31.059
			c0.4-4.122-2.618-7.789-6.741-8.188c-4.128-0.407-7.79,2.618-8.189,6.741l-3.152,32.506h-36.842c-3.096-8.729-11.432-15-21.21-15
			c-9.778,0-18.114,6.271-21.21,15H187.305c-3.096-8.729-11.432-15-21.21-15c-9.778,0-18.114,6.271-21.21,15h-36.842l-3.152-32.506
			c-0.399-4.122-4.053-7.154-8.189-6.741c-4.123,0.399-7.141,4.066-6.741,8.188l3.012,31.059h-15.07l-5.264-54.285h21.766
			c0.035,0,0.069,0.005,0.103,0.005c0.033,0,0.066-0.004,0.099-0.005h43.559c3.096,8.729,11.432,15,21.21,15
			c9.778,0,18.114-6.271,21.21-15h118.297c3.096,8.729,11.432,15,21.21,15c9.778,0,18.114-6.271,21.21-15h43.559
			c0.033,0,0.066,0.005,0.099,0.005c0.035,0,0.069-0.004,0.103-0.005h21.766L401.566,405.448z M151.876,343.663
			c0-4.136,3.364-7.5,7.5-7.5c4.136,0,7.5,3.364,7.5,7.5s-3.364,7.5-7.5,7.5C155.24,351.163,151.876,347.799,151.876,343.663z
			 M312.593,343.663c0-4.136,3.364-7.5,7.5-7.5s7.5,3.364,7.5,7.5s-3.364,7.5-7.5,7.5S312.593,347.799,312.593,343.663z
			 M408.285,336.163h-15.07l3.012-31.062c0.4-4.122-2.618-7.789-6.741-8.188c-4.123-0.418-7.789,2.617-8.189,6.741l-3.153,32.509
			h-36.842c-3.096-8.729-11.432-15-21.21-15c-9.778,0-18.114,6.271-21.21,15H180.586c-3.096-8.729-11.432-15-21.21-15
			c-9.778,0-18.114,6.271-21.21,15h-36.842l-3.153-32.509c-0.4-4.123-4.056-7.141-8.189-6.741c-4.123,0.399-7.141,4.066-6.741,8.188
			l3.012,31.062h-15.07l-5.265-54.286h21.849c0.04,0,43.679,0,43.679,0c3.096,8.729,11.432,15,21.21,15
			c9.778,0,18.114-6.271,21.21-15h131.735c3.096,8.729,11.432,15,21.21,15c9.778,0,18.114-6.271,21.21-15h43.638
			c0.04,0,21.889,0,21.889,0L408.285,336.163z M145.157,274.378c0-4.136,3.364-7.5,7.5-7.5c4.136,0,7.5,3.364,7.5,7.5
			s-3.364,7.5-7.5,7.5C148.521,281.878,145.157,278.513,145.157,274.378z M319.312,274.378c0-4.136,3.364-7.5,7.5-7.5
			s7.5,3.364,7.5,7.5s-3.364,7.5-7.5,7.5S319.312,278.513,319.312,274.378z M415.004,266.878h-15.07l3.013-31.066
			c0.4-4.122-2.618-7.789-6.741-8.188c-4.133-0.409-7.789,2.618-8.189,6.741l-3.153,32.514h-36.842c-3.096-8.729-11.432-15-21.21-15
			c-9.778,0-18.114,6.271-21.21,15H173.867c-3.096-8.729-11.432-15-21.21-15c-9.778,0-18.114,6.271-21.21,15H94.605l-3.153-32.514
			c-0.399-4.123-4.062-7.155-8.189-6.741c-4.123,0.399-7.141,4.066-6.741,8.188l3.013,31.066h-15.07L59.2,212.592h65.528
			c3.096,8.729,11.432,15,21.21,15c9.778,0,18.114-6.271,21.21-15h145.173c3.096,8.729,11.432,15,21.21,15
			c9.778,0,18.114-6.271,21.21-15h65.528L415.004,266.878z M138.438,205.092c0-4.136,3.364-7.5,7.5-7.5c4.136,0,7.5,3.364,7.5,7.5
			s-3.364,7.5-7.5,7.5C141.802,212.592,138.438,209.228,138.438,205.092z M326.031,205.092c0-4.136,3.364-7.5,7.5-7.5
			s7.5,3.364,7.5,7.5s-3.364,7.5-7.5,7.5S326.031,209.228,326.031,205.092z M421.723,197.592h-15.07l3.012-31.059
			c0.4-4.122-2.618-7.789-6.741-8.188c-4.134-0.414-7.789,2.618-8.189,6.741l-3.152,32.506h-36.842c-3.096-8.729-11.432-15-21.21-15
			c-9.778,0-18.114,6.271-21.21,15H167.148c-3.096-8.729-11.432-15-21.21-15s-18.114,6.271-21.21,15H87.886l-3.152-32.506
			c-0.399-4.123-4.062-7.152-8.189-6.741c-4.123,0.399-7.141,4.066-6.741,8.188l3.012,31.059h-15.07l-5.265-54.286h21.664
			c0.069,0.002,0.137,0.01,0.206,0.01c0.065,0,0.132-0.008,0.198-0.01h43.46c3.096,8.729,11.432,15,21.21,15
			c9.778,0,18.114-6.271,21.21-15H319.04c3.096,8.729,11.432,15,21.21,15c9.778,0,18.114-6.271,21.21-15h43.46
			c0.066,0.002,0.133,0.01,0.198,0.01c0.07,0,0.137-0.008,0.206-0.01h21.664L421.723,197.592z M131.719,135.806
			c0-4.136,3.364-7.5,7.5-7.5s7.5,3.364,7.5,7.5c0,4.136-3.364,7.5-7.5,7.5S131.719,139.941,131.719,135.806z M332.75,135.806
			c0-4.136,3.364-7.5,7.5-7.5s7.5,3.364,7.5,7.5c0,4.136-3.364,7.5-7.5,7.5S332.75,139.941,332.75,135.806z M428.443,128.306h-15.07
			l3.012-31.06c0.4-4.122-2.618-7.789-6.741-8.188c-4.137-0.409-7.79,2.618-8.189,6.741l-3.153,32.507H361.46
			c-3.096-8.729-11.432-15-21.21-15c-9.778,0-18.114,6.271-21.21,15H160.429c-3.096-8.729-11.432-15-21.21-15
			s-18.114,6.271-21.21,15H81.167L78.014,95.8c-0.399-4.123-4.06-7.156-8.189-6.741c-4.123,0.399-7.141,4.066-6.741,8.188
			l3.012,31.06h-15.07l-5.264-54.285H67.61c0.04,0,43.68,0,43.68,0c3.096,8.729,11.432,15,21.21,15s18.114-6.271,21.21-15h172.049
			c3.096,8.729,11.432,15,21.21,15c9.778,0,18.114-6.271,21.21-15h43.639c0.04,0,21.889,0,21.889,0L428.443,128.306z M125,66.521
			c0-4.136,3.364-7.5,7.5-7.5s7.5,3.364,7.5,7.5s-3.364,7.5-7.5,7.5S125,70.657,125,66.521z M339.469,66.521
			c0-4.136,3.364-7.5,7.5-7.5s7.5,3.364,7.5,7.5s-3.364,7.5-7.5,7.5S339.469,70.657,339.469,66.521z M435.162,59.021h-15.07
			l1.558-16.063c0.4-4.122-2.618-7.789-6.741-8.188c-4.125-0.413-7.789,2.618-8.188,6.741l-1.698,17.51H368.18
			c-3.096-8.729-11.432-15-21.21-15c-9.778,0-18.114,6.271-21.21,15H153.71c-3.096-8.729-11.432-15-21.21-15s-18.114,6.271-21.21,15
			H74.447l-1.698-17.51c-0.4-4.123-4.064-7.143-8.188-6.741c-4.123,0.399-7.141,4.066-6.741,8.188l1.558,16.063h-15.07
			l-3.811-39.286h398.475L435.162,59.021z"/>
	</g>
</g>
<g>
</g>
<g>
</g>
<g>
</g>
<g>
</g>
<g>
</g>
<g>
</g>
<g>
</g>
<g>
</g>
<g>
</g>
<g>
</g>
<g>
</g>
<g>
</g>
<g>
</g>
<g>
</g>
<g>
</g>
</svg>
