<?xml version="1.0" encoding="iso-8859-1"?>
<!-- Generator: Adobe Illustrator 18.0.0, SVG Export Plug-In . SVG Version: 6.00 Build 0)  -->
<!DOCTYPE svg PUBLIC "-//W3C//DTD SVG 1.1//EN" "http://www.w3.org/Graphics/SVG/1.1/DTD/svg11.dtd">
<svg version="1.1" id="Capa_1" xmlns="http://www.w3.org/2000/svg" xmlns:xlink="http://www.w3.org/1999/xlink" x="0px" y="0px"
	 viewBox="0 0 487.667 487.667" style="enable-background:new 0 0 487.667 487.667;" xml:space="preserve">
<g>
	<path d="M278.333,316.384V7.5c0-4.143-3.358-7.5-7.5-7.5h-54c-4.142,0-7.5,3.357-7.5,7.5v3.834h-24.5c-4.142,0-7.5,3.357-7.5,7.5
		s3.358,7.5,7.5,7.5h24.5v13h-24.5c-4.142,0-7.5,3.357-7.5,7.5s3.358,7.5,7.5,7.5h24.5v41h-24.5c-4.142,0-7.5,3.357-7.5,7.5
		s3.358,7.5,7.5,7.5h24.5v13h-24.5c-4.142,0-7.5,3.357-7.5,7.5c0,4.143,3.358,7.5,7.5,7.5h24.5v13h-10.833
		c-4.142,0-7.5,3.357-7.5,7.5s3.358,7.5,7.5,7.5h10.833v13h-10.833c-4.142,0-7.5,3.357-7.5,7.5s3.358,7.5,7.5,7.5h10.833v13h-10.833
		c-4.142,0-7.5,3.357-7.5,7.5s3.358,7.5,7.5,7.5h10.833v13h-10.833c-4.142,0-7.5,3.357-7.5,7.5s3.358,7.5,7.5,7.5h10.833v13h-10.833
		c-4.142,0-7.5,3.357-7.5,7.5c0,4.143,3.358,7.5,7.5,7.5h10.833v13h-10.833c-4.142,0-7.5,3.357-7.5,7.5c0,4.143,3.358,7.5,7.5,7.5
		h10.833v10.053c-38.17,14.31-63.492,50.574-63.493,91.734c0,25.888,10.246,46.931,29.629,60.855
		c17.02,12.228,40.66,18.69,68.364,18.69s51.343-6.463,68.364-18.69c19.383-13.925,29.629-34.968,29.629-60.855
		C341.826,367.135,316.45,330.701,278.333,316.384z M224.334,86.647c7.992-3.252,14.743-8.753,19.5-15.762
		c4.757,7.009,11.508,12.51,19.5,15.762v257.555c-5.241-3.755-9.23-8.895-10.843-14.369c-0.94-3.189-3.869-5.38-7.194-5.38h-2.925
		c-3.326,0-6.254,2.19-7.194,5.38c-1.613,5.475-5.603,10.614-10.843,14.369V86.647z M263.333,15v54.656
		c-5.149-3.633-9.006-8.921-10.843-15.156c-0.94-3.189-3.869-5.38-7.194-5.38h-2.925c-3.326,0-6.254,2.19-7.194,5.38
		c-1.837,6.235-5.694,11.523-10.843,15.156V15H263.333z M303.446,456.795c-14.455,10.384-35.068,15.872-59.612,15.872
		c-24.544,0-45.158-5.488-59.612-15.872c-15.514-11.145-23.38-27.521-23.38-48.674c0.001-32.93,19.13-62.163,48.493-75.517v23.563
		c0,2.373,1.123,4.606,3.029,6.022c1.905,1.415,4.37,1.845,6.64,1.158c10.148-3.066,19.028-9.533,24.831-17.669
		c5.803,8.136,14.683,14.603,24.831,17.669c0.712,0.215,1.442,0.32,2.168,0.32c1.592,0,3.163-0.507,4.472-1.478
		c1.905-1.415,3.029-3.648,3.029-6.022v-23.543c29.32,13.375,48.492,42.713,48.493,75.497
		C326.826,429.273,318.96,445.649,303.446,456.795z"/>
	<path d="M272.167,408.667h-56.666c-4.142,0-7.5,3.357-7.5,7.5v10.667c0,4.143,3.358,7.5,7.5,7.5h56.666c4.142,0,7.5-3.357,7.5-7.5
		v-10.667C279.667,412.024,276.309,408.667,272.167,408.667z"/>
</g>
<g>
</g>
<g>
</g>
<g>
</g>
<g>
</g>
<g>
</g>
<g>
</g>
<g>
</g>
<g>
</g>
<g>
</g>
<g>
</g>
<g>
</g>
<g>
</g>
<g>
</g>
<g>
</g>
<g>
</g>
</svg>
