<?xml version="1.0" standalone="no"?>
<!DOCTYPE svg PUBLIC "-//W3C//DTD SVG 20010904//EN"
 "http://www.w3.org/TR/2001/REC-SVG-20010904/DTD/svg10.dtd">
<svg version="1.0" xmlns="http://www.w3.org/2000/svg"
 width="1280.000000pt" height="640.000000pt" viewBox="0 0 1280.000000 640.000000"
 preserveAspectRatio="xMidYMid meet">
<metadata>
Created by potrace 1.15, written by Peter Selinger 2001-2017
</metadata>
<g transform="translate(0.000000,640.000000) scale(0.100000,-0.100000)"
fill="#000000" stroke="none">
<path d="M1670 5613 c-238 -23 -434 -79 -633 -180 -300 -153 -474 -355 -723
-838 -116 -224 -174 -369 -213 -527 -69 -282 -78 -483 -27 -676 12 -49 12 -50
-20 -85 -34 -37 -54 -90 -54 -143 0 -37 34 -153 60 -204 14 -27 19 -69 22
-190 5 -132 10 -173 36 -272 32 -119 117 -351 179 -487 18 -40 33 -77 33 -81
0 -4 -14 -10 -30 -14 -52 -10 -116 -61 -141 -113 -43 -88 -24 -198 43 -259 72
-66 179 -79 260 -31 26 15 51 34 56 43 7 12 19 1 59 -54 126 -173 299 -340
468 -454 279 -188 558 -263 975 -262 173 1 221 4 305 23 184 40 561 162 814
263 96 38 204 76 240 84 123 26 261 15 362 -28 l46 -19 65 41 66 41 -33 54
c-52 87 -57 207 -12 304 26 57 133 170 213 227 146 104 361 176 734 245 209
38 415 34 517 -11 86 -38 138 -156 168 -383 l6 -48 84 -41 83 -42 34 26 c49
38 124 73 207 98 64 20 88 22 185 17 61 -3 165 -18 231 -32 254 -56 263 -57
527 -62 282 -5 375 2 515 43 216 62 360 149 528 318 259 260 388 555 442 1015
l16 141 38 0 c31 0 1037 72 2654 190 77 6 161 13 188 15 l47 6 0 -156 c0 -88
5 -165 10 -175 8 -15 6 -24 -9 -39 -10 -10 -24 -20 -31 -23 -9 -3 -6 -16 11
-48 20 -39 24 -63 27 -173 4 -116 6 -129 25 -142 12 -8 35 -15 52 -15 56 0 60
8 60 132 0 104 2 118 29 176 25 54 27 64 15 80 -11 13 -13 56 -11 209 3 221
-12 197 136 209 l88 7 -7 -134 c-4 -74 -12 -140 -17 -147 -8 -9 -6 -18 7 -31
25 -28 12 -58 -29 -65 -94 -18 -145 -128 -98 -213 56 -103 153 -177 232 -176
108 2 221 104 236 214 8 62 -8 94 -63 128 -27 16 -61 39 -76 51 -26 21 -27 23
-10 35 15 11 15 17 5 39 -8 17 -12 79 -12 170 l0 143 65 7 c58 6 67 4 86 -15
20 -20 29 -21 93 -16 39 4 80 9 92 12 18 6 20 3 16 -24 -6 -43 15 -89 51 -107
41 -22 130 -29 166 -14 32 13 61 62 61 104 0 22 5 26 28 26 46 0 101 20 112
40 5 10 10 33 10 50 0 28 2 30 28 23 70 -18 96 5 118 104 35 158 4 223 -107
223 -59 0 -59 0 -59 29 0 49 -38 83 -97 88 l-51 5 -6 45 c-8 62 -22 82 -69
104 -76 34 -139 21 -192 -42 -21 -26 -26 -41 -23 -74 l3 -42 -47 5 c-63 6 -91
-2 -125 -37 l-29 -29 -135 10 c-74 5 -135 10 -136 11 -1 1 -3 93 -4 205 -2
136 1 206 8 213 8 8 4 26 -13 65 -39 89 -47 139 -33 216 15 85 7 98 -62 98
-71 0 -84 -24 -75 -134 5 -69 2 -96 -14 -150 -11 -36 -25 -68 -31 -72 -6 -3 3
-15 21 -26 27 -16 31 -23 24 -41 -4 -12 -10 -102 -11 -199 l-4 -178 -154 0
-155 0 0 150 c0 95 4 159 12 176 10 22 10 28 -5 39 -15 11 -15 13 6 32 12 11
43 33 70 48 79 46 90 76 62 172 -27 92 -135 176 -226 177 -106 0 -249 -142
-249 -249 0 -68 49 -128 116 -141 41 -7 54 -37 29 -65 -13 -13 -15 -22 -8 -31
6 -7 13 -79 17 -159 l7 -146 -223 -6 c-123 -4 -735 -8 -1361 -9 l-1137 -3 -4
86 c-3 47 -13 124 -25 171 -41 174 -171 471 -269 619 -122 181 -345 358 -580
459 -179 77 -348 106 -577 97 -163 -6 -249 -22 -720 -132 -200 -46 -250 -55
-297 -50 -89 9 -170 40 -259 98 -24 16 -27 15 -103 -34 -62 -39 -76 -53 -71
-67 43 -102 44 -167 7 -247 -43 -91 -123 -153 -227 -179 -258 -64 -693 -46
-967 40 -231 73 -429 223 -500 379 -33 73 -31 195 6 289 14 38 25 70 24 71 -2
1 -35 19 -75 40 l-71 38 -43 -37 c-110 -94 -234 -88 -729 34 -356 88 -534 119
-799 140 -127 9 -293 11 -371 3z"/>
</g>
</svg>
